<svg width="24" height="25" viewBox="0 0 24 25" fill="none" xmlns="http://www.w3.org/2000/svg">
<path d="M7.37949 4.2998C6.28123 4.40845 5.54175 4.6527 4.98925 5.20604C3.99963 6.19734 3.99963 7.79336 3.99963 10.9862V14.372C3.99963 17.564 3.99963 19.1609 4.98925 20.153C5.97887 21.1452 7.57236 21.1443 10.7585 21.1443H12.4489C15.635 21.1443 17.2285 21.1443 18.2181 20.153C19.1168 19.2519 19.2001 17.8647 19.2077 15.2294" stroke="#FFFEFF" stroke-width="1.05278" stroke-linecap="round" stroke-linejoin="round"/>
<path d="M10.7583 8.5104L11.6031 11.4582C12.0747 12.3931 12.6668 12.6373 14.1382 12.7215C15.3081 12.6929 15.9869 12.5548 16.5663 12.0511C16.9613 11.7075 17.1399 11.1895 17.2266 10.6741L17.5164 8.93151M19.6287 7.24706V11.4582M9.13706 6.76952C10.4737 5.66031 11.6646 5.06485 14.1348 4.4096C14.4135 4.33602 14.7067 4.33748 14.9846 4.41381C17.1711 5.01516 18.3519 5.54913 19.9336 6.73667C20.0009 6.78721 20.0212 6.88154 19.974 6.95144C19.4577 7.71113 18.3047 8.3268 15.4765 9.42337C14.8874 9.65004 14.2346 9.64643 13.648 9.41327C10.6362 8.21731 9.2516 7.57721 9.08316 6.9127C9.07768 6.88618 9.07984 6.85865 9.08938 6.8333C9.09892 6.80796 9.11545 6.78584 9.13706 6.76952Z" stroke="#FFFEFF" stroke-width="1.05278" stroke-linecap="round" stroke-linejoin="round"/>
</svg>
