<svg width="24" height="25" viewBox="0 0 24 25" fill="none" xmlns="http://www.w3.org/2000/svg">
<path d="M6.51398 2.72168C5.20998 2.85068 4.33198 3.14068 3.67598 3.79768C2.50098 4.97468 2.50098 6.86968 2.50098 10.6607V14.6807C2.50098 18.4707 2.50098 20.3667 3.67598 21.5447C4.85098 22.7227 6.74298 22.7217 10.526 22.7217H12.533C16.316 22.7217 18.208 22.7217 19.383 21.5447C20.45 20.4747 20.549 18.8277 20.558 15.6987" stroke="#333233" stroke-width="1.5" stroke-linecap="round" stroke-linejoin="round"/>
<path d="M10.5257 7.72136L11.5287 11.2214C12.0887 12.3314 12.7917 12.6214 14.5387 12.7214C15.9277 12.6874 16.7337 12.5234 17.4217 11.9254C17.8907 11.5174 18.1027 10.9024 18.2057 10.2904L18.5497 8.22136M21.0577 6.22136V11.2214M8.60071 5.65436C10.1877 4.33736 11.6017 3.63036 14.5347 2.85236C14.8656 2.765 15.2137 2.76672 15.5437 2.85736C18.1397 3.57136 19.5417 4.20536 21.4197 5.61536C21.4997 5.67536 21.5237 5.78736 21.4677 5.87036C20.8547 6.77236 19.4857 7.50336 16.1277 8.80536C15.4283 9.07448 14.6531 9.0702 13.9567 8.79336C10.3807 7.37336 8.73671 6.61336 8.53671 5.82436C8.53021 5.79287 8.53278 5.76018 8.5441 5.73009C8.55543 5.7 8.57506 5.67374 8.60071 5.65436Z" stroke="#333233" stroke-width="1.5" stroke-linecap="round" stroke-linejoin="round"/>
</svg>
