<svg width="25" height="25" viewBox="0 0 25 25" fill="none" xmlns="http://www.w3.org/2000/svg">
<g clip-path="url(#clip0_4283_14459)">
<path d="M12 3.72266C12.9946 3.72266 13.9484 4.11774 14.6517 4.82101C15.3549 5.52427 15.75 6.47809 15.75 7.47266C15.75 8.25716 15.4995 8.85716 15.1155 9.33266C14.8445 9.65562 14.5294 9.93889 14.1795 10.1742L13.929 10.3497C13.536 10.6227 13.2525 10.8252 13.05 11.0742C12.8426 11.3258 12.7358 11.6454 12.75 11.9712V13.4712C12.75 13.6701 12.671 13.8608 12.5303 14.0015C12.3897 14.1421 12.1989 14.2212 12 14.2212C11.8011 14.2212 11.6103 14.1421 11.4697 14.0015C11.329 13.8608 11.25 13.6701 11.25 13.4712V11.9712C11.25 11.1927 11.502 10.5972 11.8875 10.1262C12.165 9.78716 12.507 9.52016 12.8115 9.30116L13.071 9.11966C13.461 8.84816 13.7445 8.64416 13.947 8.39216C14.1582 8.13366 14.2662 7.80608 14.25 7.47266C14.25 6.87592 14.0129 6.30362 13.591 5.88167C13.169 5.45971 12.5967 5.22266 12 5.22266C11.4033 5.22266 10.831 5.45971 10.409 5.88167C9.98705 6.30362 9.75 6.87592 9.75 7.47266C9.75 7.67157 9.67098 7.86233 9.53033 8.00299C9.38968 8.14364 9.19891 8.22266 9 8.22266C8.80109 8.22266 8.61032 8.14364 8.46967 8.00299C8.32902 7.86233 8.25 7.67157 8.25 7.47266C8.25 6.47809 8.64509 5.52427 9.34835 4.82101C10.0516 4.11774 11.0054 3.72266 12 3.72266ZM12 15.8727C12.3481 15.8727 12.6819 16.0109 12.9281 16.2571C13.1742 16.5032 13.3125 16.8371 13.3125 17.1852C13.3125 17.5333 13.1742 17.8671 12.9281 18.1132C12.6819 18.3594 12.3481 18.4977 12 18.4977C11.6519 18.4977 11.3181 18.3594 11.0719 18.1132C10.8258 17.8671 10.6875 17.5333 10.6875 17.1852C10.6875 16.8371 10.8258 16.5032 11.0719 16.2571C11.3181 16.0109 11.6519 15.8727 12 15.8727Z" fill="#333233"/>
<path fill-rule="evenodd" clip-rule="evenodd" d="M12.0004 21.7212C13.7704 21.7212 15.2854 21.5157 16.5754 21.1377C18.0754 22.1862 20.0704 23.2677 22.6504 24.5427C24.0244 25.2267 25.3354 23.6757 24.4654 22.4127C23.3749 20.8077 22.4254 19.2477 21.6754 17.4777C22.7794 15.7227 23.2354 13.5627 23.2354 11.2227C23.2354 5.41766 20.4154 0.722656 11.9854 0.722656C3.55535 0.722656 0.735352 5.43266 0.735352 11.2227C0.735352 17.0277 3.55535 21.7227 11.9854 21.7227L12.0004 21.7212ZM20.4154 16.6812C20.2866 16.885 20.2089 17.1168 20.1888 17.357C20.1687 17.5972 20.2068 17.8388 20.2999 18.0612C21.0739 19.9062 22.0549 21.5262 23.1349 23.1162C20.6599 21.8817 18.8149 20.8662 17.4349 19.9062C17.2511 19.7779 17.0408 19.6925 16.8197 19.6561C16.5985 19.6198 16.372 19.6335 16.1569 19.6962C15.0199 20.0277 13.6519 20.2197 12.0019 20.2197C8.05685 20.2197 5.70185 19.1277 4.30685 17.6247C2.89535 16.0947 2.25035 13.9047 2.25035 11.2197C2.25035 8.53466 2.90135 6.32966 4.30535 4.81466C5.69585 3.31466 8.05535 2.21966 12.0004 2.21966C15.9454 2.21966 18.3004 3.31166 19.6954 4.81466C21.1054 6.34466 21.7504 8.53466 21.7504 11.2197C21.7504 13.3797 21.3244 15.2397 20.4184 16.6797L20.4154 16.6812Z" fill="#333233"/>
</g>
<defs>
<clipPath id="clip0_4283_14459">
<rect width="24" height="24" fill="white" transform="translate(0.75 0.722656)"/>
</clipPath>
</defs>
</svg>
