<svg width="25" height="25" viewBox="0 0 25 25" fill="none" xmlns="http://www.w3.org/2000/svg">
<path fill-rule="evenodd" clip-rule="evenodd" d="M5.82897 5.79168C9.62397 2.00168 15.794 2.04168 19.612 5.86068C23.432 9.68068 23.472 15.8537 19.676 19.6487C15.88 23.4437 9.70797 23.4047 5.88797 19.5847C4.81334 18.5147 4.00141 17.2102 3.51593 15.7735C3.03045 14.3368 2.88465 12.8072 3.08997 11.3047C3.11689 11.1075 3.22104 10.9291 3.37951 10.8087C3.53798 10.6883 3.73778 10.6358 3.93497 10.6627C4.13216 10.6896 4.31058 10.7937 4.43098 10.9522C4.55138 11.1107 4.60389 11.3105 4.57697 11.5077C4.40266 12.781 4.52605 14.0774 4.93746 15.2949C5.34887 16.5125 6.03707 17.6181 6.94797 18.5247C10.193 21.7687 15.416 21.7877 18.616 18.5887C21.815 15.3887 21.796 10.1657 18.552 6.92068C15.309 3.67868 10.089 3.65768 6.88897 6.85268L7.63697 6.85568C7.73546 6.85614 7.8329 6.87599 7.92372 6.91411C8.01454 6.95222 8.09696 7.00785 8.16628 7.07782C8.2356 7.14779 8.29046 7.23073 8.32772 7.3219C8.36499 7.41307 8.38393 7.51069 8.38347 7.60918C8.38301 7.70767 8.36316 7.80511 8.32504 7.89592C8.28693 7.98674 8.2313 8.06916 8.16133 8.13848C8.09136 8.2078 8.00842 8.26266 7.91725 8.29993C7.82608 8.33719 7.72846 8.35614 7.62997 8.35568L5.08397 8.34368C4.88627 8.34262 4.69699 8.26355 4.55728 8.12366C4.41758 7.98377 4.33876 7.79438 4.33797 7.59668L4.32497 5.05268C4.32445 4.95419 4.34333 4.85656 4.38053 4.76536C4.41774 4.67417 4.47254 4.59119 4.54181 4.52118C4.61109 4.45116 4.69347 4.39548 4.78427 4.3573C4.87506 4.31912 4.97248 4.2992 5.07097 4.29868C5.16946 4.29815 5.2671 4.31703 5.35829 4.35424C5.44949 4.39144 5.53246 4.44625 5.60248 4.51552C5.67249 4.58479 5.72818 4.66718 5.76635 4.75797C5.80453 4.84876 5.82445 4.94619 5.82497 5.04468L5.82897 5.79168ZM12.749 7.97168C12.9479 7.97168 13.1387 8.0507 13.2793 8.19135C13.42 8.332 13.499 8.52277 13.499 8.72168V12.4117L15.78 14.6917C15.8516 14.7608 15.9088 14.8436 15.9482 14.935C15.9875 15.0265 16.0082 15.1249 16.0092 15.2245C16.0101 15.3241 15.9911 15.4229 15.9535 15.5151C15.9158 15.6072 15.8602 15.691 15.7898 15.7615C15.7194 15.8319 15.6357 15.8876 15.5435 15.9254C15.4514 15.9632 15.3526 15.9822 15.253 15.9814C15.1534 15.9805 15.055 15.9599 14.9635 15.9206C14.872 15.8814 14.7892 15.8243 14.72 15.7527L12 13.0327V8.72268C12 8.52377 12.079 8.333 12.2196 8.19235C12.3603 8.0517 12.5511 7.97268 12.75 7.97268" fill="#333233"/>
</svg>
