<svg width="24" height="25" viewBox="0 0 24 25" fill="none" xmlns="http://www.w3.org/2000/svg">
<path d="M22.275 15.1967L20.025 12.9467C19.725 12.6467 19.275 12.6467 18.975 12.9467L12 19.9217V23.2217H15.3L22.275 16.2467C22.575 15.9467 22.575 15.4967 22.275 15.1967ZM14.7 21.7217H13.5V20.5217L17.25 16.7717L18.45 17.9717L14.7 21.7217ZM19.5 16.9217L18.3 15.7217L19.5 14.5217L20.7 15.7217L19.5 16.9217ZM7.5 17.9717H9V19.4717H7.5V17.9717ZM10.5 14.2217H13.5V15.7217H10.5V14.2217ZM7.5 14.2217H9V15.7217H7.5V14.2217ZM10.5 10.4717H16.5V11.9717H10.5V10.4717ZM7.5 10.4717H9V11.9717H7.5V10.4717Z" fill="#333233"/>
<path d="M5.25 21.7217V5.97168H7.5V8.22168H16.5V5.97168H18.75V10.4717H20.25V5.97168C20.25 5.14668 19.575 4.47168 18.75 4.47168H16.5V3.72168C16.5 2.89668 15.825 2.22168 15 2.22168H9C8.175 2.22168 7.5 2.89668 7.5 3.72168V4.47168H5.25C4.425 4.47168 3.75 5.14668 3.75 5.97168V21.7217C3.75 22.5467 4.425 23.2217 5.25 23.2217H9V21.7217H5.25ZM9 3.72168H15V6.72168H9V3.72168Z" fill="#333233"/>
</svg>
