<svg width="24" height="25" viewBox="0 0 24 25" fill="none" xmlns="http://www.w3.org/2000/svg">
<path d="M14.9997 18.7217V19.4717C14.9997 20.2673 14.6837 21.0304 14.1211 21.593C13.5585 22.1556 12.7954 22.4717 11.9997 22.4717C11.2041 22.4717 10.441 22.1556 9.87842 21.593C9.31581 21.0304 8.99974 20.2673 8.99974 19.4717V18.7217M20.0472 17.195C18.8435 15.7217 17.9936 14.9717 17.9936 10.91C17.9936 7.19043 16.0943 5.86527 14.531 5.22168C14.3233 5.13637 14.1279 4.94043 14.0646 4.72715C13.7904 3.79387 13.0216 2.97168 11.9997 2.97168C10.9779 2.97168 10.2086 3.79434 9.93724 4.72809C9.87396 4.94371 9.67849 5.13637 9.47084 5.22168C7.90568 5.86621 6.00818 7.18668 6.00818 10.91C6.00584 14.9717 5.15599 15.7217 3.95224 17.195C3.45349 17.8053 3.89037 18.7217 4.76271 18.7217H19.2415C20.1091 18.7217 20.5432 17.8025 20.0472 17.195Z" stroke="#333233" stroke-width="1.5" stroke-linecap="round" stroke-linejoin="round"/>
</svg>
