<svg width="23" height="25" viewBox="0 0 23 25" fill="none" xmlns="http://www.w3.org/2000/svg">
<g clip-path="url(#clip0_3351_4535)">
<path d="M11.25 11.2217C10.2554 11.2217 9.30161 10.8266 8.59835 10.1233C7.89509 9.42007 7.5 8.46624 7.5 7.47168C7.5 6.47712 7.89509 5.52329 8.59835 4.82003C9.30161 4.11677 10.2554 3.72168 11.25 3.72168C12.2446 3.72168 13.1984 4.11677 13.9017 4.82003C14.6049 5.52329 15 6.47712 15 7.47168C15 8.46624 14.6049 9.42007 13.9017 10.1233C13.1984 10.8266 12.2446 11.2217 11.25 11.2217ZM11.25 5.22168C10.005 5.22168 9 6.22668 9 7.47168C9 8.71668 10.005 9.72168 11.25 9.72168C12.495 9.72168 13.5 8.71668 13.5 7.47168C13.5 6.22668 12.495 5.22168 11.25 5.22168Z" fill="#333233"/>
<path d="M20.25 17.2217C19.83 17.2217 19.5 16.8917 19.5 16.4717C19.5 16.0517 19.83 15.7217 20.25 15.7217C20.67 15.7217 21 15.3917 21 14.9717C21 13.9771 20.6049 13.0233 19.9016 12.32C19.1984 11.6168 18.2446 11.2217 17.25 11.2217H15.75C15.33 11.2217 15 10.8917 15 10.4717C15 10.0517 15.33 9.72168 15.75 9.72168C16.995 9.72168 18 8.71668 18 7.47168C18 6.22668 16.995 5.22168 15.75 5.22168C15.33 5.22168 15 4.89168 15 4.47168C15 4.05168 15.33 3.72168 15.75 3.72168C16.7446 3.72168 17.6984 4.11677 18.4016 4.82003C19.1049 5.52329 19.5 6.47712 19.5 7.47168C19.5 8.40168 19.17 9.24168 18.6 9.90168C20.835 10.5017 22.5 12.5417 22.5 14.9717C22.5 16.2167 21.495 17.2217 20.25 17.2217ZM2.25 17.2217C1.005 17.2217 0 16.2167 0 14.9717C0 12.5417 1.65 10.5017 3.9 9.90168C3.345 9.24168 3 8.40168 3 7.47168C3 6.47712 3.39509 5.52329 4.09835 4.82003C4.80161 4.11677 5.75544 3.72168 6.75 3.72168C7.17 3.72168 7.5 4.05168 7.5 4.47168C7.5 4.89168 7.17 5.22168 6.75 5.22168C5.505 5.22168 4.5 6.22668 4.5 7.47168C4.5 8.71668 5.505 9.72168 6.75 9.72168C7.17 9.72168 7.5 10.0517 7.5 10.4717C7.5 10.8917 7.17 11.2217 6.75 11.2217H5.25C4.25544 11.2217 3.30161 11.6168 2.59835 12.32C1.89509 13.0233 1.5 13.9771 1.5 14.9717C1.5 15.3917 1.83 15.7217 2.25 15.7217C2.67 15.7217 3 16.0517 3 16.4717C3 16.8917 2.67 17.2217 2.25 17.2217ZM15.75 21.7217H6.75C5.505 21.7217 4.5 20.7167 4.5 19.4717V17.9717C4.5 15.0767 6.855 12.7217 9.75 12.7217H12.75C15.645 12.7217 18 15.0767 18 17.9717V19.4717C18 20.7167 16.995 21.7217 15.75 21.7217ZM9.75 14.2217C8.75544 14.2217 7.80161 14.6168 7.09835 15.32C6.39509 16.0233 6 16.9771 6 17.9717V19.4717C6 19.8917 6.33 20.2217 6.75 20.2217H15.75C16.17 20.2217 16.5 19.8917 16.5 19.4717V17.9717C16.5 16.9771 16.1049 16.0233 15.4017 15.32C14.6984 14.6168 13.7446 14.2217 12.75 14.2217H9.75Z" fill="#333233"/>
</g>
<defs>
<clipPath id="clip0_3351_4535">
<rect width="22.5" height="24" fill="white" transform="translate(0 0.72168)"/>
</clipPath>
</defs>
</svg>
