<svg width="24" height="25" viewBox="0 0 24 25" fill="none" xmlns="http://www.w3.org/2000/svg">
<path d="M12 15.7217C13.6569 15.7217 15 14.3785 15 12.7217C15 11.0648 13.6569 9.72168 12 9.72168C10.3431 9.72168 9 11.0648 9 12.7217C9 14.3785 10.3431 15.7217 12 15.7217Z" stroke="#333233" stroke-width="1.5"/>
<path d="M13.7655 2.87368C13.3985 2.72168 12.9325 2.72168 12.0005 2.72168C11.0685 2.72168 10.6025 2.72168 10.2355 2.87368C9.99263 2.97419 9.772 3.12158 9.58617 3.3074C9.40035 3.49323 9.25296 3.71386 9.15245 3.95668C9.06045 4.17968 9.02345 4.44068 9.00945 4.81968C9.00294 5.09361 8.92705 5.36141 8.78889 5.59803C8.65073 5.83466 8.45481 6.03237 8.21945 6.17268C7.98026 6.30645 7.71104 6.37735 7.43698 6.37875C7.16293 6.38015 6.893 6.312 6.65245 6.18068C6.31645 6.00268 6.07345 5.90468 5.83245 5.87268C5.30677 5.80355 4.77515 5.94599 4.35445 6.26868C4.04045 6.51168 3.80645 6.91468 3.34045 7.72168C2.87445 8.52868 2.64045 8.93168 2.58945 9.32668C2.55509 9.58713 2.57237 9.8518 2.64032 10.1056C2.70826 10.3593 2.82554 10.5972 2.98545 10.8057C3.13345 10.9977 3.34045 11.1587 3.66145 11.3607C4.13445 11.6577 4.43845 12.1637 4.43845 12.7217C4.43845 13.2797 4.13445 13.7857 3.66145 14.0817C3.34045 14.2847 3.13245 14.4457 2.98545 14.6377C2.82554 14.8461 2.70826 15.084 2.64032 15.3378C2.57237 15.5916 2.55509 15.8562 2.58945 16.1167C2.64145 16.5107 2.87445 16.9147 3.33945 17.7217C3.80645 18.5287 4.03945 18.9317 4.35445 19.1747C4.56289 19.3346 4.80078 19.4519 5.05456 19.5198C5.30833 19.5878 5.573 19.605 5.83345 19.5707C6.07345 19.5387 6.31645 19.4407 6.65245 19.2627C6.893 19.1314 7.16293 19.0632 7.43698 19.0646C7.71104 19.066 7.98026 19.1369 8.21945 19.2707C8.70245 19.5507 8.98945 20.0657 9.00945 20.6237C9.02345 21.0037 9.05945 21.2637 9.15245 21.4867C9.25296 21.7295 9.40035 21.9501 9.58617 22.136C9.772 22.3218 9.99263 22.4692 10.2355 22.5697C10.6025 22.7217 11.0685 22.7217 12.0005 22.7217C12.9325 22.7217 13.3985 22.7217 13.7655 22.5697C14.0083 22.4692 14.2289 22.3218 14.4147 22.136C14.6006 21.9501 14.7479 21.7295 14.8484 21.4867C14.9404 21.2637 14.9775 21.0037 14.9915 20.6237C15.0115 20.0657 15.2985 19.5497 15.7815 19.2707C16.0206 19.1369 16.2899 19.066 16.5639 19.0646C16.838 19.0632 17.1079 19.1314 17.3484 19.2627C17.6844 19.4407 17.9274 19.5387 18.1674 19.5707C18.4279 19.605 18.6926 19.5878 18.9463 19.5198C19.2001 19.4519 19.438 19.3346 19.6465 19.1747C19.9615 18.9327 20.1944 18.5287 20.6604 17.7217C21.1264 16.9147 21.3604 16.5117 21.4114 16.1167C21.4458 15.8562 21.4285 15.5916 21.3606 15.3378C21.2926 15.084 21.1754 14.8461 21.0154 14.6377C20.8674 14.4457 20.6605 14.2847 20.3395 14.0827C20.1054 13.9401 19.9113 13.7404 19.7754 13.5024C19.6395 13.2644 19.5663 12.9957 19.5625 12.7217C19.5625 12.1637 19.8665 11.6577 20.3395 11.3617C20.6605 11.1587 20.8684 10.9977 21.0154 10.8057C21.1754 10.5972 21.2926 10.3593 21.3606 10.1056C21.4285 9.8518 21.4458 9.58713 21.4114 9.32668C21.3594 8.93268 21.1264 8.52868 20.6614 7.72168C20.1944 6.91468 19.9615 6.51168 19.6465 6.26868C19.438 6.10877 19.2001 5.99149 18.9463 5.92355C18.6926 5.8556 18.4279 5.83831 18.1674 5.87268C17.9274 5.90468 17.6845 6.00268 17.3475 6.18068C17.107 6.31182 16.8373 6.37987 16.5634 6.37848C16.2896 6.37708 16.0205 6.30627 15.7815 6.17268C15.5461 6.03237 15.3502 5.83466 15.212 5.59803C15.0738 5.36141 14.998 5.09361 14.9915 4.81968C14.9775 4.43968 14.9414 4.17968 14.8484 3.95668C14.7479 3.71386 14.6006 3.49323 14.4147 3.3074C14.2289 3.12158 14.0083 2.97419 13.7655 2.87368Z" stroke="#333233" stroke-width="1.5"/>
</svg>
