<svg width="25" height="25" viewBox="0 0 25 25" fill="none" xmlns="http://www.w3.org/2000/svg">
<path d="M3.25 6.71875L8.75 4.71875L14.25 6.71875L11.75 8.21875V9.71875C11.75 9.71875 11.083 9.21875 8.75 9.21875C6.417 9.21875 5.75 9.71875 5.75 9.71875V8.21875L3.25 6.71875ZM3.25 6.71875V10.7188" stroke="#333233" stroke-width="1.5" stroke-linecap="round" stroke-linejoin="round"/>
<path d="M11.75 9.21875V10.1077C11.75 11.8257 10.407 13.2188 8.75 13.2188C7.093 13.2188 5.75 11.8257 5.75 10.1077V9.21875M16.068 11.7487C16.068 11.7487 16.553 11.3958 18.25 11.3958C19.947 11.3958 20.432 11.7478 20.432 11.7478M16.068 11.7487V10.7188L14.25 9.71875L18.25 8.21875L22.25 9.71875L20.432 10.7188V11.7478M16.068 11.7487V12.0367C16.068 12.6155 16.2979 13.1705 16.7071 13.5797C17.1163 13.9889 17.6713 14.2187 18.25 14.2188C18.8287 14.2187 19.3837 13.9889 19.7929 13.5797C20.2021 13.1705 20.432 12.6155 20.432 12.0367V11.7478M16.75 20.7188H20.455C21.228 20.7188 21.842 20.3427 22.394 19.8167C23.524 18.7407 21.669 17.8807 20.962 17.4597C20.3332 17.0886 19.6351 16.8504 18.9106 16.7597C18.1862 16.6691 17.4508 16.728 16.75 16.9328M5.135 16.6447C4.192 17.1717 1.719 18.2467 3.225 19.5917C3.961 20.2487 4.78 20.7188 5.811 20.7188H11.689C12.719 20.7188 13.539 20.2487 14.275 19.5917C15.781 18.2467 13.308 17.1717 12.365 16.6447C10.153 15.4097 7.347 15.4097 5.135 16.6447Z" stroke="#333233" stroke-width="1.5" stroke-linecap="round" stroke-linejoin="round"/>
</svg>
