<svg width="24" height="25" viewBox="0 0 24 25" fill="none" xmlns="http://www.w3.org/2000/svg">
<path d="M11.77 20.7217V19.7217H18.385C18.5517 19.7217 18.6957 19.6703 18.817 19.5677C18.939 19.465 19 19.3303 19 19.1637V12.2757C19 10.4023 18.3113 8.83802 16.934 7.58268C15.556 6.32668 13.9113 5.69868 12 5.69868C10.0887 5.69868 8.444 6.32668 7.066 7.58268C5.68867 8.83802 5 10.4023 5 12.2757V17.9527H4.5C4.09133 17.9527 3.739 17.8143 3.443 17.5377C3.14767 17.2617 3 16.9197 3 16.5117V14.6267C3 14.328 3.097 14.063 3.291 13.8317C3.48567 13.5997 3.722 13.4113 4 13.2667L4.017 12.0377C4.04767 10.9943 4.284 10.0277 4.726 9.13768C5.168 8.24768 5.74933 7.47301 6.47 6.81368C7.19067 6.15435 8.02867 5.64101 8.984 5.27368C9.93933 4.90635 10.9447 4.72235 12 4.72168C13.0553 4.72101 14.06 4.90501 15.014 5.27368C15.966 5.64168 16.8037 6.15435 17.527 6.81168C18.2503 7.46835 18.8317 8.24168 19.271 9.13168C19.711 10.021 19.9483 10.9877 19.983 12.0317L20 13.2347C20.2653 13.3593 20.4983 13.527 20.699 13.7377C20.8997 13.9477 21 14.2 21 14.4947V16.6607C21 16.9553 20.8997 17.2077 20.699 17.4177C20.4983 17.6277 20.2653 17.795 20 17.9197V19.1637C20 19.5983 19.8427 19.9667 19.528 20.2687C19.2133 20.5707 18.8323 20.7217 18.385 20.7217H11.77ZM9.385 14.2607C9.17833 14.2607 8.99833 14.1903 8.845 14.0497C8.69167 13.9097 8.615 13.7363 8.615 13.5297C8.615 13.323 8.69167 13.1463 8.845 12.9997C8.99833 12.853 9.17833 12.7797 9.385 12.7797C9.59167 12.7797 9.77133 12.853 9.924 12.9997C10.0767 13.1463 10.1533 13.323 10.154 13.5297C10.1547 13.7363 10.078 13.9097 9.924 14.0497C9.77 14.1897 9.59 14.2597 9.384 14.2597M14.616 14.2597C14.4093 14.2597 14.2293 14.1897 14.076 14.0497C13.9227 13.9097 13.846 13.7363 13.846 13.5297C13.846 13.323 13.9227 13.1463 14.076 12.9997C14.2293 12.853 14.4093 12.7797 14.616 12.7797C14.8227 12.7797 15.0023 12.853 15.155 12.9997C15.3077 13.1463 15.3843 13.323 15.385 13.5297C15.3857 13.7363 15.309 13.9097 15.155 14.0497C15.001 14.1897 14.821 14.2597 14.615 14.2597M6.718 12.6717C6.62733 11.1743 7.10967 9.89802 8.165 8.84268C9.21967 7.78735 10.515 7.25968 12.051 7.25968C13.3417 7.25968 14.4857 7.64735 15.483 8.42268C16.4803 9.19802 17.089 10.2163 17.309 11.4777C15.9843 11.461 14.755 11.123 13.621 10.4637C12.487 9.80435 11.617 8.88768 11.011 7.71368C10.7697 8.86768 10.268 9.87901 9.506 10.7477C8.74333 11.6163 7.814 12.2577 6.718 12.6717Z" fill="#333233"/>
</svg>
