<svg width="47" height="46" viewBox="0 0 47 46" fill="none" xmlns="http://www.w3.org/2000/svg">
<rect x="0.199951" width="46" height="46" rx="23" fill="#F7D6DE" fill-opacity="0.25"/>
<path d="M28.585 32.0002C27.4703 32.0002 26.525 31.6122 25.749 30.8362C24.973 30.0589 24.585 29.1136 24.585 28.0002C24.585 26.8869 24.973 25.9419 25.749 25.1652C26.525 24.3886 27.47 24.0002 28.584 24.0002C29.6986 24.0002 30.644 24.3886 31.42 25.1652C32.1966 25.9412 32.585 26.8862 32.585 28.0002C32.585 29.1142 32.1966 30.0596 31.42 30.8362C30.6433 31.6129 29.6983 32.0009 28.585 32.0002ZM30.24 30.2022L30.786 29.6562L28.969 27.8382V25.1162H28.2V28.1622L30.24 30.2022ZM16.815 31.0002C16.3683 31.0002 15.9873 30.8429 15.672 30.5282C15.3573 30.2136 15.2 29.8326 15.2 29.3852V16.6152C15.2 16.1686 15.3573 15.7876 15.672 15.4722C15.9866 15.1576 16.368 15.0002 16.816 15.0002H21.452C21.5453 14.6096 21.753 14.2812 22.075 14.0152C22.397 13.7486 22.772 13.6152 23.2 13.6152C23.636 13.6152 24.014 13.7486 24.334 14.0152C24.654 14.2806 24.8606 14.6089 24.954 15.0002H29.584C30.032 15.0002 30.4133 15.1576 30.728 15.4722C31.0426 15.7869 31.2 16.1682 31.2 16.6162V22.6352C31.028 22.5466 30.8653 22.4689 30.712 22.4022C30.5586 22.3356 30.388 22.2759 30.2 22.2232V16.6152C30.2 16.4619 30.136 16.3209 30.008 16.1922C29.88 16.0636 29.7386 15.9996 29.584 16.0002H27.2V18.2302H19.2V16.0002H16.816C16.662 16.0002 16.5206 16.0642 16.392 16.1922C16.2633 16.3202 16.1993 16.4616 16.2 16.6162V29.3852C16.2 29.5646 16.2576 29.7119 16.373 29.8272C16.4883 29.9426 16.636 30.0002 16.816 30.0002H22.942C22.9953 30.1869 23.0583 30.3606 23.131 30.5212C23.2043 30.6812 23.2976 30.8409 23.411 31.0002H16.815ZM23.2 16.2302C23.432 16.2302 23.6246 16.1539 23.778 16.0012C23.9313 15.8479 24.008 15.6552 24.008 15.4232C24.008 15.1912 23.9313 14.9986 23.778 14.8452C23.6246 14.6919 23.432 14.6152 23.2 14.6152C22.968 14.6152 22.7753 14.6919 22.622 14.8452C22.4686 14.9986 22.392 15.1912 22.392 15.4232C22.392 15.6552 22.4686 15.8479 22.622 16.0012C22.7753 16.1546 22.968 16.2302 23.2 16.2302Z" fill="#DE5376"/>
</svg>
