<svg width="47" height="46" viewBox="0 0 47 46" fill="none" xmlns="http://www.w3.org/2000/svg">
<rect x="0.399902" width="46" height="46" rx="23" fill="#FD873B" fill-opacity="0.1"/>
<g clip-path="url(#clip0_2104_68763)">
<path d="M24.4 27.5C24.4 27.7652 24.2946 28.0196 24.1071 28.2071C23.9196 28.3946 23.6652 28.5 23.4 28.5C23.1348 28.5 22.8804 28.3946 22.6929 28.2071C22.5054 28.0196 22.4 27.7652 22.4 27.5C22.4 27.2348 22.5054 26.9804 22.6929 26.7929C22.8804 26.6054 23.1348 26.5 23.4 26.5C23.6652 26.5 23.9196 26.6054 24.1071 26.7929C24.2946 26.9804 24.4 27.2348 24.4 27.5ZM21.883 19.835C21.995 19.612 22.151 19.411 22.371 19.265C22.586 19.12 22.906 19 23.4 19C23.784 19 24.166 19.118 24.434 19.319C24.5626 19.4095 24.6668 19.5305 24.7371 19.6712C24.8075 19.8119 24.8418 19.9678 24.837 20.125C24.837 20.605 24.619 20.935 24.217 21.311C24.0842 21.4331 23.9478 21.5511 23.808 21.665L23.514 21.914C23.268 22.127 22.99 22.388 22.776 22.709L22.65 22.899V24.5C22.65 24.6989 22.729 24.8897 22.8697 25.0303C23.0103 25.171 23.2011 25.25 23.4 25.25C23.5989 25.25 23.7897 25.171 23.9303 25.0303C24.071 24.8897 24.15 24.6989 24.15 24.5V23.38C24.24 23.28 24.353 23.172 24.497 23.047C24.56 22.992 24.637 22.928 24.719 22.86C24.885 22.72 25.077 22.56 25.239 22.408C25.775 21.908 26.337 21.208 26.337 20.125C26.3416 19.7349 26.253 19.3494 26.0785 19.0005C25.9041 18.6516 25.6488 18.3494 25.334 18.119C24.77 17.695 24.058 17.5 23.4 17.5C22.644 17.5 22.027 17.691 21.539 18.017C21.1118 18.3056 20.7679 18.7015 20.542 19.165C20.4614 19.3418 20.4525 19.543 20.5172 19.7262C20.582 19.9094 20.7153 20.0603 20.8892 20.1472C21.063 20.234 21.2637 20.25 21.4491 20.1918C21.6345 20.1336 21.7901 20.0056 21.883 19.835Z" fill="#FD873B"/>
<path d="M21.2639 12.1997C21.8833 11.7451 22.6316 11.5 23.3999 11.5C24.1682 11.5 24.9165 11.7451 25.5359 12.1997L26.9109 13.2097C27.1849 13.4097 27.5039 13.5427 27.8399 13.5937L29.5259 13.8527C30.2853 13.9692 30.9877 14.3248 31.531 14.868C32.0743 15.4111 32.4302 16.1134 32.5469 16.8727L32.8059 18.5597C32.8569 18.8957 32.9889 19.2147 33.1899 19.4887L34.1999 20.8637C34.6545 21.4831 34.8996 22.2314 34.8996 22.9997C34.8996 23.7681 34.6545 24.5163 34.1999 25.1357L33.1899 26.5107C32.9886 26.7848 32.8568 27.1036 32.8059 27.4397L32.5469 29.1257C32.4305 29.8851 32.0748 30.5875 31.5317 31.1309C30.9885 31.6742 30.2862 32.0301 29.5269 32.1467L27.8399 32.4057C27.5037 32.4566 27.1849 32.5884 26.9109 32.7897L25.5359 33.7997C24.9165 34.2544 24.1682 34.4995 23.3999 34.4995C22.6316 34.4995 21.8833 34.2544 21.2639 33.7997L19.8889 32.7897C19.6149 32.5884 19.2961 32.4566 18.9599 32.4057L17.2739 32.1467C16.5145 32.0303 15.8121 31.6747 15.2688 31.1315C14.7255 30.5884 14.3696 29.8861 14.2529 29.1267L13.9939 27.4397C13.943 27.1036 13.8112 26.7848 13.6099 26.5107L12.5999 25.1357C12.1453 24.5163 11.9001 23.7681 11.9001 22.9997C11.9001 22.2314 12.1453 21.4831 12.5999 20.8637L13.6099 19.4887C13.8109 19.2147 13.9429 18.8957 13.9939 18.5597L14.2529 16.8737C14.3693 16.1144 14.725 15.4119 15.2681 14.8686C15.8113 14.3253 16.5136 13.9694 17.2729 13.8527L18.9599 13.5937C19.2959 13.5427 19.6149 13.4107 19.8889 13.2097L21.2639 12.1997ZM24.6479 13.4087C24.2859 13.1432 23.8488 13.0001 23.3999 13.0001C22.951 13.0001 22.5138 13.1432 22.1519 13.4087L20.7759 14.4187C20.3072 14.7632 19.7619 14.989 19.1869 15.0767L17.5009 15.3347C17.0569 15.4028 16.6462 15.6108 16.3285 15.9284C16.0109 16.246 15.8029 16.6567 15.7349 17.1007L15.4769 18.7867C15.3893 19.3621 15.1635 19.9077 14.8189 20.3767L13.8089 21.7517C13.5434 22.1137 13.4002 22.5509 13.4002 22.9997C13.4002 23.4486 13.5434 23.8858 13.8089 24.2477L14.8189 25.6237C15.1634 26.0925 15.3892 26.6377 15.4769 27.2127L15.7349 28.8987C15.8031 29.3426 16.0112 29.7531 16.3288 30.0705C16.6464 30.3879 17.057 30.5957 17.5009 30.6637L19.1869 30.9237C19.7622 31.011 20.3078 31.2365 20.7769 31.5807L22.1519 32.5907C22.5138 32.8562 22.951 32.9994 23.3999 32.9994C23.8488 32.9994 24.2859 32.8562 24.6479 32.5907L26.0239 31.5807C26.4926 31.2363 27.0378 31.0105 27.6129 30.9227L29.2989 30.6647C29.7427 30.5965 30.1532 30.3884 30.4706 30.0708C30.7881 29.7532 30.9959 29.3426 31.0639 28.8987L31.3239 27.2127C31.4112 26.6374 31.6366 26.0919 31.9809 25.6227L32.9909 24.2477C33.2564 23.8858 33.3995 23.4486 33.3995 22.9997C33.3995 22.5509 33.2564 22.1137 32.9909 21.7517L31.9809 20.3757C31.6364 19.907 31.4106 19.3618 31.3229 18.7867L31.0649 17.1007C30.9968 16.6567 30.7889 16.246 30.4712 15.9284C30.1536 15.6108 29.7429 15.4028 29.2989 15.3347L27.6129 15.0767C27.0375 14.9892 26.4919 14.7634 26.0229 14.4187L24.6479 13.4087Z" fill="#FD873B"/>
</g>
<defs>
<clipPath id="clip0_2104_68763">
<rect width="24" height="24" fill="white" transform="translate(11.3999 11)"/>
</clipPath>
</defs>
</svg>
