<svg width="47" height="46" viewBox="0 0 47 46" fill="none" xmlns="http://www.w3.org/2000/svg">
<rect x="0.800049" width="46" height="46" rx="23" fill="#CED3E0" fill-opacity="0.3"/>
<path d="M25.3 30.5H31.429L29.4895 32.4395L30.55 33.5L34.3 29.75L30.55 26L29.4895 27.0605L31.429 29H25.3V30.5ZM19.3 26.75H23.05V28.25H19.3V26.75ZM19.3 23H26.8V24.5H19.3V23Z" fill="#33487D"/>
<path d="M30.325 17.975L25.075 12.725C24.925 12.575 24.775 12.5 24.55 12.5H17.05C16.225 12.5 15.55 13.175 15.55 14V32C15.55 32.8272 16.2235 33.5 17.05 33.5H23.05V32H17.05V14H23.05V18.5C23.05 19.325 23.725 20 24.55 20H29.05V24.5H30.55V18.5C30.55 18.275 30.475 18.125 30.325 17.975ZM24.55 18.5V14.3L28.75 18.5H24.55Z" fill="#33487D"/>
</svg>
