<svg width="47" height="46" viewBox="0 0 47 46" fill="none" xmlns="http://www.w3.org/2000/svg">
<rect x="0.199951" width="46" height="46" rx="23" fill="#D2D1D1" fill-opacity="0.25"/>
<path fill-rule="evenodd" clip-rule="evenodd" d="M21.2 14C21.8666 14 22.5333 14.2533 23.2 14.76C23.8666 14.2533 24.5333 14 25.2 14H31.2C31.7304 14 32.2391 14.2107 32.6142 14.5858C32.9892 14.9609 33.2 15.4696 33.2 16V29C33.2 29.5304 32.9892 30.0391 32.6142 30.4142C32.2391 30.7893 31.7304 31 31.2 31H24.2C24.2 31.552 23.75 32 23.2 32C22.65 32 22.2 31.55 22.2 31H15.2C14.6695 31 14.1608 30.7893 13.7857 30.4142C13.4107 30.0391 13.2 29.5304 13.2 29V16C13.2 15.4696 13.4107 14.9609 13.7857 14.5858C14.1608 14.2107 14.6695 14 15.2 14H21.2ZM21.2 16H15.2V29H22.2V17C22.2 16.45 21.75 16 21.2 16ZM31.2 16H25.2C24.65 16 24.2 16.45 24.2 17V29H31.2V16Z" fill="#696765"/>
</svg>
