<svg width="47" height="46" viewBox="0 0 47 46" fill="none" xmlns="http://www.w3.org/2000/svg">
<rect x="0.599854" width="46" height="46" rx="23" fill="#34C759" fill-opacity="0.08"/>
<path d="M20.6228 32.2305L18.9528 29.4165L15.7768 28.7315L16.0888 25.4545L13.9458 23.0005L16.0898 20.5465L15.7768 17.2705L18.9538 16.5855L20.6228 13.7705L23.5998 15.0275L26.5768 13.7695L28.2468 16.5855L31.4228 17.2695L31.1108 20.5465L33.2548 23.0005L31.1128 25.4545L31.4238 28.7315L28.2468 29.4155L26.5778 32.2315L23.5998 30.9735L20.6228 32.2305ZM21.0498 30.9505L23.5998 29.8895L26.1618 30.9505L27.5998 28.5505L30.3498 27.9395L30.0998 25.1005L31.9498 23.0005L30.0998 20.8895L30.3498 18.0505L27.5998 17.4505L26.1498 15.0505L23.5998 16.1125L21.0388 15.0505L19.5998 17.4505L16.8498 18.0505L17.0998 20.8895L15.2498 23.0005L17.0998 25.1005L16.8498 27.9505L19.5998 28.5505L21.0498 30.9505ZM22.5498 25.8585L27.5078 20.9005L26.7998 20.1805L22.5498 24.4305L20.3998 22.2925L19.6918 23.0005L22.5498 25.8585Z" fill="#06A561"/>
</svg>
