<svg width="46" height="46" viewBox="0 0 46 46" fill="none" xmlns="http://www.w3.org/2000/svg">
<rect x="-0.000244141" width="46" height="46" rx="23" fill="#F7D6DE" fill-opacity="0.3"/>
<path d="M22.999 21.5848C22.857 21.5848 22.738 21.6325 22.642 21.7278C22.546 21.8231 22.4984 21.9421 22.499 22.0848V26.2848L20.753 24.5388C20.6597 24.4455 20.545 24.3955 20.409 24.3888C20.273 24.3821 20.1517 24.4321 20.045 24.5388C19.9384 24.6455 19.885 24.7635 19.885 24.8928C19.885 25.0221 19.9384 25.1401 20.045 25.2468L22.433 27.6348C22.595 27.7961 22.7837 27.8768 22.999 27.8768C23.2144 27.8768 23.403 27.7961 23.565 27.6348L25.953 25.2468C26.0464 25.1528 26.0964 25.0378 26.103 24.9018C26.1097 24.7658 26.0597 24.6448 25.953 24.5388C25.8464 24.4328 25.7284 24.3795 25.599 24.3788C25.4697 24.3781 25.3517 24.4315 25.245 24.5388L23.499 26.2848V22.0848C23.499 21.9428 23.4514 21.8238 23.356 21.7278C23.2607 21.6318 23.1417 21.5841 22.999 21.5848ZM15.999 18.8148V29.3928C15.999 29.5721 16.0567 29.7195 16.172 29.8348C16.2874 29.9501 16.435 30.0078 16.615 30.0078H29.384C29.5634 30.0078 29.7107 29.9501 29.826 29.8348C29.9414 29.7195 29.999 29.5721 29.999 29.3928V18.8158L15.999 18.8148ZM16.769 31.0078C16.321 31.0078 15.914 30.8248 15.548 30.4588C15.182 30.0928 14.999 29.6861 14.999 29.2388V18.4938C14.999 18.2991 15.03 18.1158 15.092 17.9438C15.154 17.7718 15.2474 17.6135 15.372 17.4688L16.93 15.5988C17.0747 15.4035 17.2557 15.2561 17.473 15.1568C17.6904 15.0575 17.9234 15.0078 18.172 15.0078H27.788C28.036 15.0078 28.272 15.0575 28.496 15.1568C28.72 15.2561 28.9044 15.4031 29.049 15.5978L30.626 17.5078C30.7507 17.6525 30.844 17.8141 30.906 17.9928C30.968 18.1708 30.999 18.3575 30.999 18.5528V29.2378C30.999 29.6851 30.816 30.0918 30.45 30.4578C30.084 30.8238 29.6774 31.0068 29.23 31.0068L16.769 31.0078ZM16.379 17.8158H29.599L28.269 16.2178C28.2044 16.1538 28.1304 16.1028 28.047 16.0648C27.9637 16.0268 27.877 16.0078 27.787 16.0078H18.191C18.1017 16.0078 18.015 16.0271 17.931 16.0658C17.847 16.1045 17.7737 16.1558 17.711 16.2198L16.379 17.8158Z" fill="#6C182D"/>
</svg>
