<svg width="114" height="91" viewBox="0 0 114 91" fill="none" xmlns="http://www.w3.org/2000/svg">
<path fill-rule="evenodd" clip-rule="evenodd" d="M94.0639 29.3809C95.8113 29.3809 97.2279 30.7974 97.2279 32.5449C97.2279 34.2923 95.8113 35.7089 94.0639 35.7089H75.9839C77.7313 35.7089 79.1479 37.1254 79.1479 38.8729C79.1479 40.6203 77.7313 42.0369 75.9839 42.0369H85.9279C87.6753 42.0369 89.0919 43.4534 89.0919 45.2009C89.0919 46.9483 87.6753 48.3649 85.9279 48.3649H81.3293C79.126 48.3649 77.3399 49.7814 77.3399 51.5289C77.3399 52.6938 78.2439 53.7485 80.0519 54.6929C81.7993 54.6929 83.2159 56.1094 83.2159 57.8569C83.2159 59.6043 81.7993 61.0209 80.0519 61.0209H42.5359C40.7885 61.0209 39.3719 59.6043 39.3719 57.8569C39.3719 56.1094 40.7885 54.6929 42.5359 54.6929H24.9079C23.1605 54.6929 21.7439 53.2763 21.7439 51.5289C21.7439 49.7814 23.1605 48.3649 24.9079 48.3649H42.9879C44.7353 48.3649 46.1519 46.9483 46.1519 45.2009C46.1519 43.4534 44.7353 42.0369 42.9879 42.0369H31.6879C29.9405 42.0369 28.5239 40.6203 28.5239 38.8729C28.5239 37.1254 29.9405 35.7089 31.6879 35.7089H49.7679C48.0205 35.7089 46.6039 34.2923 46.6039 32.5449C46.6039 30.7974 48.0205 29.3809 49.7679 29.3809H94.0639ZM94.0639 42.0369C95.8113 42.0369 97.2279 43.4534 97.2279 45.2009C97.2279 46.9483 95.8113 48.3649 94.0639 48.3649C92.3165 48.3649 90.8999 46.9483 90.8999 45.2009C90.8999 43.4534 92.3165 42.0369 94.0639 42.0369Z" fill="#D2D1D1"/>
<path fill-rule="evenodd" clip-rule="evenodd" d="M45.6739 60.202L46.3474 60.1787V69.6701C46.3474 69.8849 46.5222 70.059 46.7379 70.059H70.1696C70.3853 70.059 70.5601 69.8849 70.5601 69.6701V37.1331C70.5601 36.3455 69.919 35.707 69.1282 35.707H47.7793C46.9885 35.707 46.3474 36.3455 46.3474 37.1331V43.8985L45.6739 43.8752C45.5948 43.8724 45.5156 43.8711 45.4361 43.8711C41.3523 43.8711 38.0161 47.5151 38.0161 52.0386C38.0161 56.5621 41.3523 60.2061 45.4361 60.2061C45.5156 60.2061 45.5948 60.2048 45.6739 60.202ZM45.7486 57.0822C45.6449 57.0905 45.5407 57.0947 45.4361 57.0947C42.9711 57.0947 41.0188 54.8099 41.0188 52.0386C41.0188 49.2673 42.9711 46.9825 45.4361 46.9825C45.5407 46.9825 45.6449 46.9867 45.7486 46.9949L46.3474 47.0428V57.0344L45.7486 57.0822Z" fill="white" stroke="#43413E" stroke-width="1.13" stroke-linejoin="round"/>
<path d="M66.9441 38.502V46.7819M66.9441 49.35V51.4939V49.35Z" stroke="#B4B3B2" stroke-width="1.13" stroke-linecap="round" stroke-linejoin="round"/>
<path d="M30.8418 66.4434H33.948M82.3698 66.4434H83.668M73.272 66.4434H80.2453M36.66 66.4434H44.5492" stroke="#43413E" stroke-width="1.13" stroke-linecap="round" stroke-linejoin="round"/>
<path d="M58.3561 15.8203C57.1508 17.7248 56.5481 19.3822 56.5481 20.7923C56.5481 23.3037 58.6516 24.4284 58.6516 27.1488C58.6516 28.5295 57.9504 29.9004 56.5481 31.2616" stroke="#B4B3B2" stroke-width="1.13" stroke-linecap="round"/>
<path d="M52.9321 20.793C52.5377 23.2847 54.2881 23.7455 54.2881 25.9795C54.2881 27.1133 53.8361 28.2471 52.9321 29.381" stroke="#B4B3B2" stroke-width="1.13" stroke-linecap="round"/>
<path d="M61.4275 19.6504C60.8304 21.1959 61.1659 22.1379 61.4275 22.6923C61.9868 23.8775 62.8761 24.9006 62.8761 26.1066C62.8761 27.5073 62.3932 28.8554 61.4275 30.1508" stroke="#B4B3B2" stroke-width="1.13" stroke-linecap="round"/>
<path d="M47.96 37.9676C47.96 37.718 48.1623 37.5156 48.412 37.5156L57 37.5156V68.7036H48.412C48.1623 68.7036 47.96 68.5013 47.96 68.2516V37.9676Z" fill="#B4B3B2"/>
</svg>
