<svg width="120" height="96" viewBox="0 0 120 96" fill="none" xmlns="http://www.w3.org/2000/svg">
<path fill-rule="evenodd" clip-rule="evenodd" d="M99.3601 31.1992C101.216 31.1992 102.72 32.7035 102.72 34.5592C102.72 36.4149 101.216 37.9192 99.3601 37.9192H80.1601C82.0157 37.9192 83.5201 39.4235 83.5201 41.2792C83.5201 43.1349 82.0157 44.6392 80.1601 44.6392H90.7201C92.5757 44.6392 94.0801 46.1435 94.0801 47.9992C94.0801 49.8549 92.5757 51.3592 90.7201 51.3592H85.8366C83.4968 51.3592 81.6001 52.8635 81.6001 54.7192C81.6001 55.9563 82.5601 57.0763 84.4801 58.0792C86.3357 58.0792 87.8401 59.5835 87.8401 61.4392C87.8401 63.2949 86.3357 64.7992 84.4801 64.7992H44.6401C42.7844 64.7992 41.2801 63.2949 41.2801 61.4392C41.2801 59.5835 42.7844 58.0792 44.6401 58.0792H25.9201C24.0644 58.0792 22.5601 56.5749 22.5601 54.7192C22.5601 52.8635 24.0644 51.3592 25.9201 51.3592H45.1201C46.9757 51.3592 48.4801 49.8549 48.4801 47.9992C48.4801 46.1435 46.9757 44.6392 45.1201 44.6392H33.1201C31.2644 44.6392 29.7601 43.1349 29.7601 41.2792C29.7601 39.4235 31.2644 37.9192 33.1201 37.9192H52.3201C50.4644 37.9192 48.9601 36.4149 48.9601 34.5592C48.9601 32.7035 50.4644 31.1992 52.3201 31.1992H99.3601ZM99.3601 44.6392C101.216 44.6392 102.72 46.1435 102.72 47.9992C102.72 49.8549 101.216 51.3592 99.3601 51.3592C97.5044 51.3592 96.0001 49.8549 96.0001 47.9992C96.0001 46.1435 97.5044 44.6392 99.3601 44.6392Z" fill="#D2D1D1"/>
<path fill-rule="evenodd" clip-rule="evenodd" d="M73.7625 30.7206L78.2274 63.2851L78.6285 66.5522C78.7577 67.6047 78.0093 68.5626 76.9568 68.6919L48.8479 72.1432C47.7954 72.2724 46.8375 71.524 46.7082 70.4715L42.3807 35.2263C42.3161 34.7 42.6903 34.2211 43.2165 34.1564C43.2198 34.156 43.2232 34.1556 43.2265 34.1553L45.5585 33.8937M47.4441 33.6818L49.6459 33.4348L47.4441 33.6818Z" fill="white"/>
<path d="M74.3569 30.6391C74.3119 30.3108 74.0093 30.0812 73.681 30.1262C73.3527 30.1712 73.123 30.4738 73.168 30.8021L74.3569 30.6391ZM78.2274 63.2851L78.823 63.212L78.8218 63.2036L78.2274 63.2851ZM78.6285 66.5522L79.224 66.4791L78.6285 66.5522ZM76.9568 68.6919L77.0299 69.2874L76.9568 68.6919ZM48.8479 72.1432L48.921 72.7387L48.8479 72.1432ZM46.7082 70.4715L47.3038 70.3984L46.7082 70.4715ZM42.3807 35.2263L41.7851 35.2994L42.3807 35.2263ZM43.2265 34.1553L43.2934 34.7515L43.2265 34.1553ZM45.6254 34.4899C45.9547 34.453 46.1917 34.1561 46.1548 33.8268C46.1178 33.4975 45.8209 33.2605 45.4916 33.2974L45.6254 34.4899ZM47.3772 33.0855C47.0479 33.1225 46.8109 33.4194 46.8478 33.7487C46.8848 34.078 47.1817 34.315 47.511 34.278L47.3772 33.0855ZM49.7128 34.0311C50.0421 33.9941 50.2791 33.6972 50.2421 33.3679C50.2052 33.0386 49.9083 32.8016 49.579 32.8385L49.7128 34.0311ZM73.7625 30.7206L73.168 30.8021L77.6329 63.3667L78.2274 63.2851L78.8218 63.2036L74.3569 30.6391L73.7625 30.7206ZM78.2274 63.2851L77.6318 63.3583L78.033 66.6253L78.6285 66.5522L79.224 66.4791L78.8229 63.212L78.2274 63.2851ZM78.6285 66.5522L78.033 66.6253C78.1218 67.3489 77.6073 68.0075 76.8837 68.0963L76.9568 68.6919L77.0299 69.2874C78.4113 69.1178 79.3937 67.8604 79.224 66.4791L78.6285 66.5522ZM76.9568 68.6919L76.8837 68.0963L48.7748 71.5477L48.8479 72.1432L48.921 72.7387L77.0299 69.2874L76.9568 68.6919ZM48.8479 72.1432L48.7748 71.5477C48.0512 71.6365 47.3926 71.122 47.3038 70.3984L46.7082 70.4715L46.1127 70.5446C46.2823 71.926 47.5397 72.9083 48.921 72.7387L48.8479 72.1432ZM46.7082 70.4715L47.3038 70.3984L42.9762 35.1532L42.3807 35.2263L41.7851 35.2994L46.1127 70.5446L46.7082 70.4715ZM42.3807 35.2263L42.9762 35.1532C42.952 34.9558 43.0923 34.7762 43.2896 34.752L43.2165 34.1564L43.1434 33.5609C42.2883 33.6659 41.6801 34.4443 41.7851 35.2994L42.3807 35.2263ZM43.2165 34.1564L43.2896 34.752C43.2909 34.7518 43.2921 34.7517 43.2934 34.7515L43.2265 34.1553L43.1596 33.559C43.1542 33.5596 43.1488 33.5603 43.1434 33.5609L43.2165 34.1564ZM43.2265 34.1553L43.2934 34.7515L45.6254 34.4899L45.5585 33.8937L45.4916 33.2974L43.1596 33.559L43.2265 34.1553ZM47.4441 33.6818L47.511 34.278L49.7128 34.0311L49.6459 33.4348L49.579 32.8385L47.3772 33.0855L47.4441 33.6818Z" fill="#43413E"/>
<path fill-rule="evenodd" clip-rule="evenodd" d="M72.5473 32.7683L76.5887 62.2805L76.9522 65.2412C77.0693 66.195 76.4002 67.0621 75.4577 67.1778L50.2855 70.2686C49.343 70.3843 48.484 69.7049 48.3669 68.7511L44.4549 36.8903C44.3903 36.3641 44.7645 35.8851 45.2907 35.8205L48.4048 35.4381" fill="#D2D1D1"/>
<path d="M53.1226 24.5996H74.9897C75.3397 24.5996 75.6758 24.739 75.9233 24.9863L82.3755 31.4355C82.6231 31.6831 82.7622 32.019 82.7622 32.3691V62.4004C82.762 63.1291 82.1716 63.7196 81.4429 63.7197H53.1226C52.3937 63.7197 51.8025 63.1292 51.8022 62.4004V25.9199C51.8023 25.191 52.3936 24.5997 53.1226 24.5996Z" fill="#FFFEFF" stroke="#43413E" stroke-width="1.2"/>
<path d="M75.2026 25.1523V30.719C75.2026 31.5143 75.8473 32.159 76.6426 32.159H80.4508" stroke="#43413E" stroke-width="1.2" stroke-linecap="round" stroke-linejoin="round"/>
<path d="M56.6401 56.6402H69.1201M56.6401 32.1602H69.1201H56.6401ZM56.6401 37.9202H77.2801H56.6401ZM56.6401 44.1602H77.2801H56.6401ZM56.6401 50.4002H77.2801H56.6401Z" stroke="#D2D1D1" stroke-width="1.2" stroke-linecap="round" stroke-linejoin="round"/>
</svg>
