<svg width="114" height="91" viewBox="0 0 114 91" fill="none" xmlns="http://www.w3.org/2000/svg">
<path d="M61.9722 28.9277C63.7195 28.9278 65.1361 30.3445 65.1362 32.0918C65.1362 33.8392 63.7195 35.2558 61.9722 35.2559H90.8999C92.6473 35.2559 94.0639 36.6725 94.064 38.4199C94.064 40.1674 92.6473 41.584 90.8999 41.584H100.844C102.592 41.5841 104.008 43.0007 104.008 44.748C104.008 46.4954 102.592 47.912 100.844 47.9121H92.2563C90.5089 47.9121 89.0923 49.3287 89.0923 51.0762C89.0924 52.8235 90.509 54.2402 92.2563 54.2402H94.9683C96.7156 54.2404 98.1323 55.657 98.1323 57.4043C98.1322 59.1515 96.7155 60.5682 94.9683 60.5684H71.4644C71.2316 60.5684 71.0041 60.5428 70.7856 60.4951C70.5673 60.5428 70.3405 60.5684 70.1079 60.5684H28.9761C27.2287 60.5684 25.8122 59.1516 25.812 57.4043C25.812 55.6569 27.2286 54.2402 28.9761 54.2402H11.3481C9.60077 54.2402 8.18418 52.8235 8.18408 51.0762C8.18408 49.3287 9.60072 47.9121 11.3481 47.9121H29.4282C31.1755 47.912 32.5923 46.4954 32.5923 44.748C32.5923 43.0007 31.1755 41.5841 29.4282 41.584H18.1284C16.381 41.584 14.9644 40.1674 14.9644 38.4199C14.9644 36.6725 16.381 35.2559 18.1284 35.2559H36.2075C34.4603 35.2556 33.0444 33.8391 33.0444 32.0918C33.0445 30.3446 34.4604 28.928 36.2075 28.9277H61.9722ZM102.652 54.2402C104.399 54.2402 105.816 55.6569 105.816 57.4043C105.816 59.1516 104.399 60.5684 102.652 60.5684C100.905 60.5683 99.488 59.1515 99.4878 57.4043C99.4878 55.6569 100.904 54.2403 102.652 54.2402Z" fill="#D2D1D1"/>
<path fill-rule="evenodd" clip-rule="evenodd" d="M51.6296 50.7617C51.5943 51.0118 51.576 51.2673 51.576 51.5271C51.576 54.5227 54.0044 56.9511 57 56.9511C59.9956 56.9511 62.424 54.5227 62.424 51.5271C62.424 51.2673 62.4058 51.0118 62.3704 50.7617H75.532V62.8271C75.532 63.576 74.9249 64.1831 74.176 64.1831H39.824C39.0751 64.1831 38.468 63.576 38.468 62.8271V50.7617H51.6296Z" fill="white"/>
<path fill-rule="evenodd" clip-rule="evenodd" d="M62.876 50.6233C62.876 53.8686 60.2452 56.4993 57 56.4993C53.7548 56.4993 51.124 53.8686 51.124 50.6233C51.124 50.5182 51.1268 50.4137 51.1322 50.3099H38.468L42.7893 37.5329C42.9756 36.9821 43.4924 36.6113 44.0739 36.6113H69.9262C70.5077 36.6113 71.0244 36.9821 71.2107 37.5329L75.532 50.3099H62.8678C62.8733 50.4137 62.876 50.5182 62.876 50.6233Z" fill="white"/>
<path fill-rule="evenodd" clip-rule="evenodd" d="M62.016 51.0551C62.016 53.5628 59.7702 56.0477 56.9999 56.0477C54.2296 56.0477 51.9838 53.5628 51.9838 51.0551C51.9838 50.9739 51.9861 50.4412 51.9908 50.361H42.5359L46.2248 41.3918C46.3839 40.9662 46.825 40.6797 47.3214 40.6797H66.6784C67.1748 40.6797 67.6159 40.9662 67.775 41.3918L71.4639 50.361H62.009C62.0136 50.4412 62.016 50.9739 62.016 51.0551Z" fill="#D2D1D1"/>
<path fill-rule="evenodd" clip-rule="evenodd" d="M39.033 50.4043V62.3767C39.033 62.8136 39.3871 63.1677 39.824 63.1677H74.176C74.6128 63.1677 74.967 62.8136 74.967 62.3767V50.4043L70.6754 37.7153C70.5667 37.394 70.2653 37.1777 69.9261 37.1777H44.0738C43.7346 37.1777 43.4332 37.394 43.3245 37.7153L39.033 50.4043Z" stroke="#43413E" stroke-width="1.13"/>
<path d="M44.7959 50.1719C46.5752 50.1719 48.4954 50.1719 50.5566 50.1719C51.4047 50.1719 51.4047 50.7679 51.4047 51.0759C51.4047 54.0715 53.8889 56.4999 56.9535 56.4999C60.018 56.4999 62.5022 54.0715 62.5022 51.0759C62.5022 50.7679 62.5022 50.1719 63.3503 50.1719H74.6279M41.4392 50.1719H42.5359H41.4392Z" stroke="#43413E" stroke-width="1.13" stroke-linecap="round" stroke-linejoin="round"/>
<path d="M68.3449 26.353L63.3279 31.9819M56.5929 24.4082V31.9819V24.4082ZM44.7959 26.353L49.8129 31.9819L44.7959 26.353Z" stroke="#B4B3B2" stroke-width="1.13" stroke-linecap="round" stroke-linejoin="round"/>
</svg>
