<svg width="24" height="25" viewBox="0 0 24 25" fill="none" xmlns="http://www.w3.org/2000/svg">
<path d="M12 3.97168C12.1989 3.97168 12.3897 4.0507 12.5303 4.19135C12.671 4.332 12.75 4.52277 12.75 4.72168C12.75 4.92059 12.671 5.11136 12.5303 5.25201C12.3897 5.39266 12.1989 5.47168 12 5.47168C10.0772 5.47168 8.23311 6.23552 6.87348 7.59516C5.51384 8.95479 4.75 10.7989 4.75 12.7217C4.75 14.6445 5.51384 16.4886 6.87348 17.8482C8.23311 19.2078 10.0772 19.9717 12 19.9717C12.1989 19.9717 12.3897 20.0507 12.5303 20.1913C12.671 20.332 12.75 20.5228 12.75 20.7217C12.75 20.9206 12.671 21.1114 12.5303 21.252C12.3897 21.3927 12.1989 21.4717 12 21.4717C9.67936 21.4717 7.45376 20.5498 5.81282 18.9089C4.17187 17.2679 3.25 15.0423 3.25 12.7217C3.25 10.401 4.17187 8.17544 5.81282 6.5345C7.45376 4.89355 9.67936 3.97168 12 3.97168Z" fill="#134980"/>
<path d="M16.47 10.2515C16.3375 10.1094 16.2654 9.92131 16.2688 9.727C16.2723 9.5327 16.351 9.34732 16.4884 9.20991C16.6258 9.07249 16.8112 8.99378 17.0055 8.99035C17.1998 8.98692 17.3878 9.05905 17.53 9.19153L20.53 12.1915C20.6705 12.3322 20.7493 12.5228 20.7493 12.7215C20.7493 12.9203 20.6705 13.1109 20.53 13.2515L17.53 16.2515C17.4613 16.3252 17.3785 16.3843 17.2865 16.4253C17.1945 16.4663 17.0952 16.4883 16.9945 16.4901C16.8938 16.4919 16.7938 16.4734 16.7004 16.4356C16.607 16.3979 16.5222 16.3418 16.451 16.2706C16.3797 16.1993 16.3236 16.1145 16.2859 16.0211C16.2482 15.9277 16.2296 15.8277 16.2314 15.727C16.2332 15.6263 16.2552 15.527 16.2962 15.435C16.3372 15.343 16.3963 15.2602 16.47 15.1915L18.19 13.4715H10C9.80109 13.4715 9.61032 13.3925 9.46967 13.2519C9.32902 13.1112 9.25 12.9204 9.25 12.7215C9.25 12.5226 9.32902 12.3318 9.46967 12.1912C9.61032 12.0505 9.80109 11.9715 10 11.9715H18.19L16.47 10.2515Z" fill="#134980"/>
</svg>
