<svg width="100%" height="100%" viewBox="0 0 159 76" fill="none" xmlns="http://www.w3.org/2000/svg">
<path d="M83.5408 42C83.4234 42 83.3208 41.956 83.2328 41.868C83.1448 41.78 83.1008 41.6773 83.1008 41.56C83.1008 41.4867 83.1081 41.406 83.1228 41.318L88.5788 27.084C88.6374 26.9373 88.7181 26.82 88.8208 26.732C88.9234 26.644 89.0774 26.6 89.2828 26.6H90.7788C90.9694 26.6 91.1161 26.644 91.2188 26.732C91.3361 26.82 91.4241 26.9373 91.4828 27.084L96.9168 41.318C96.9461 41.406 96.9608 41.4867 96.9608 41.56C96.9608 41.6773 96.9168 41.78 96.8288 41.868C96.7408 41.956 96.6381 42 96.5208 42H95.3988C95.2228 42 95.0908 41.956 95.0028 41.868C94.9294 41.78 94.8781 41.6993 94.8488 41.626L93.6388 38.502H86.4228L85.2128 41.626C85.1981 41.6993 85.1468 41.78 85.0588 41.868C84.9708 41.956 84.8388 42 84.6628 42H83.5408ZM87.0608 36.61H93.0008L90.0308 28.8L87.0608 36.61ZM103.518 42.22C102.477 42.22 101.575 42.022 100.812 41.626C100.064 41.2153 99.4848 40.636 99.0741 39.888C98.6635 39.1253 98.4435 38.216 98.4141 37.16C98.3995 36.94 98.3921 36.6467 98.3921 36.28C98.3921 35.9133 98.3995 35.62 98.4141 35.4C98.4435 34.344 98.6635 33.442 99.0741 32.694C99.4848 31.9313 100.064 31.352 100.812 30.956C101.575 30.5453 102.477 30.34 103.518 30.34C104.369 30.34 105.095 30.4573 105.696 30.692C106.312 30.9267 106.818 31.2273 107.214 31.594C107.61 31.9607 107.903 32.3567 108.094 32.782C108.299 33.2073 108.409 33.6107 108.424 33.992C108.439 34.1387 108.395 34.256 108.292 34.344C108.189 34.432 108.065 34.476 107.918 34.476H106.862C106.715 34.476 106.605 34.4467 106.532 34.388C106.459 34.3147 106.385 34.1973 106.312 34.036C106.048 33.3173 105.689 32.8113 105.234 32.518C104.779 32.2247 104.215 32.078 103.54 32.078C102.66 32.078 101.941 32.3493 101.384 32.892C100.841 33.4347 100.548 34.3073 100.504 35.51C100.489 36.038 100.489 36.5513 100.504 37.05C100.548 38.2673 100.841 39.1473 101.384 39.69C101.941 40.218 102.66 40.482 103.54 40.482C104.215 40.482 104.779 40.3353 105.234 40.042C105.689 39.7487 106.048 39.2427 106.312 38.524C106.385 38.3627 106.459 38.2527 106.532 38.194C106.605 38.1207 106.715 38.084 106.862 38.084H107.918C108.065 38.084 108.189 38.128 108.292 38.216C108.395 38.304 108.439 38.4213 108.424 38.568C108.409 38.876 108.343 39.1913 108.226 39.514C108.109 39.8367 107.918 40.1667 107.654 40.504C107.405 40.8267 107.089 41.12 106.708 41.384C106.327 41.6333 105.865 41.8387 105.322 42C104.794 42.1467 104.193 42.22 103.518 42.22ZM111.565 42C111.418 42 111.293 41.956 111.191 41.868C111.103 41.7653 111.059 41.6407 111.059 41.494V26.886C111.059 26.7393 111.103 26.622 111.191 26.534C111.293 26.4313 111.418 26.38 111.565 26.38H112.665C112.826 26.38 112.951 26.4313 113.039 26.534C113.127 26.622 113.171 26.7393 113.171 26.886V32.012C113.567 31.5133 114.051 31.11 114.623 30.802C115.195 30.494 115.921 30.34 116.801 30.34C117.754 30.34 118.561 30.5527 119.221 30.978C119.895 31.3887 120.401 31.968 120.739 32.716C121.091 33.4493 121.267 34.3073 121.267 35.29V41.494C121.267 41.6407 121.223 41.7653 121.135 41.868C121.047 41.956 120.922 42 120.761 42H119.661C119.514 42 119.389 41.956 119.287 41.868C119.199 41.7653 119.155 41.6407 119.155 41.494V35.4C119.155 34.3733 118.905 33.574 118.407 33.002C117.908 32.4153 117.175 32.122 116.207 32.122C115.297 32.122 114.564 32.4153 114.007 33.002C113.449 33.574 113.171 34.3733 113.171 35.4V41.494C113.171 41.6407 113.127 41.7653 113.039 41.868C112.951 41.956 112.826 42 112.665 42H111.565ZM128.997 42.22C127.486 42.22 126.284 41.758 125.389 40.834C124.494 39.8953 124.003 38.6193 123.915 37.006C123.9 36.8153 123.893 36.5733 123.893 36.28C123.893 35.972 123.9 35.7227 123.915 35.532C123.974 34.4907 124.216 33.5813 124.641 32.804C125.066 32.012 125.646 31.4033 126.379 30.978C127.127 30.5527 128 30.34 128.997 30.34C130.112 30.34 131.043 30.5747 131.791 31.044C132.554 31.5133 133.133 32.1807 133.529 33.046C133.925 33.9113 134.123 34.9233 134.123 36.082V36.456C134.123 36.6173 134.072 36.742 133.969 36.83C133.881 36.918 133.764 36.962 133.617 36.962H126.005C126.005 36.9767 126.005 37.006 126.005 37.05C126.005 37.094 126.005 37.1307 126.005 37.16C126.034 37.7613 126.166 38.326 126.401 38.854C126.636 39.3673 126.973 39.7853 127.413 40.108C127.853 40.4307 128.381 40.592 128.997 40.592C129.525 40.592 129.965 40.5113 130.317 40.35C130.669 40.1887 130.955 40.0127 131.175 39.822C131.395 39.6167 131.542 39.4627 131.615 39.36C131.747 39.1693 131.85 39.0593 131.923 39.03C131.996 38.986 132.114 38.964 132.275 38.964H133.331C133.478 38.964 133.595 39.008 133.683 39.096C133.786 39.1693 133.83 39.2793 133.815 39.426C133.8 39.646 133.683 39.9173 133.463 40.24C133.243 40.548 132.928 40.856 132.517 41.164C132.106 41.472 131.608 41.7287 131.021 41.934C130.434 42.1247 129.76 42.22 128.997 42.22ZM126.005 35.444H132.033V35.378C132.033 34.718 131.908 34.1313 131.659 33.618C131.424 33.1047 131.08 32.7013 130.625 32.408C130.17 32.1 129.628 31.946 128.997 31.946C128.366 31.946 127.824 32.1 127.369 32.408C126.929 32.7013 126.592 33.1047 126.357 33.618C126.122 34.1313 126.005 34.718 126.005 35.378V35.444ZM140.349 42C140.129 42 139.953 41.9487 139.821 41.846C139.704 41.7433 139.608 41.6113 139.535 41.45L135.465 31.242C135.436 31.1687 135.421 31.0953 135.421 31.022C135.421 30.89 135.465 30.78 135.553 30.692C135.641 30.604 135.751 30.56 135.883 30.56H136.939C137.1 30.56 137.225 30.604 137.313 30.692C137.401 30.78 137.452 30.8607 137.467 30.934L140.833 39.602L144.177 30.934C144.206 30.8607 144.258 30.78 144.331 30.692C144.419 30.604 144.544 30.56 144.705 30.56H145.783C145.9 30.56 146.003 30.604 146.091 30.692C146.194 30.78 146.245 30.89 146.245 31.022C146.245 31.0953 146.23 31.1687 146.201 31.242L142.109 41.45C142.05 41.6113 141.955 41.7433 141.823 41.846C141.706 41.9487 141.53 42 141.295 42H140.349ZM151.309 42.22C150.576 42.22 149.908 42.0733 149.307 41.78C148.706 41.4867 148.222 41.0907 147.855 40.592C147.488 40.0933 147.305 39.5287 147.305 38.898C147.305 37.886 147.716 37.0793 148.537 36.478C149.358 35.8767 150.429 35.4807 151.749 35.29L155.027 34.828V34.19C155.027 33.486 154.822 32.936 154.411 32.54C154.015 32.144 153.362 31.946 152.453 31.946C151.793 31.946 151.258 32.078 150.847 32.342C150.451 32.606 150.172 32.9433 150.011 33.354C149.923 33.574 149.769 33.684 149.549 33.684H148.559C148.398 33.684 148.273 33.64 148.185 33.552C148.112 33.4493 148.075 33.332 148.075 33.2C148.075 32.98 148.156 32.7087 148.317 32.386C148.493 32.0633 148.757 31.748 149.109 31.44C149.461 31.132 149.908 30.8753 150.451 30.67C151.008 30.45 151.683 30.34 152.475 30.34C153.355 30.34 154.096 30.4573 154.697 30.692C155.298 30.912 155.768 31.2127 156.105 31.594C156.457 31.9753 156.706 32.408 156.853 32.892C157.014 33.376 157.095 33.8673 157.095 34.366V41.494C157.095 41.6407 157.044 41.7653 156.941 41.868C156.853 41.956 156.736 42 156.589 42H155.577C155.416 42 155.291 41.956 155.203 41.868C155.115 41.7653 155.071 41.6407 155.071 41.494V40.548C154.88 40.812 154.624 41.076 154.301 41.34C153.978 41.5893 153.575 41.802 153.091 41.978C152.607 42.1393 152.013 42.22 151.309 42.22ZM151.771 40.57C152.372 40.57 152.922 40.4453 153.421 40.196C153.92 39.932 154.308 39.5287 154.587 38.986C154.88 38.4433 155.027 37.7613 155.027 36.94V36.324L152.475 36.698C151.434 36.8447 150.649 37.094 150.121 37.446C149.593 37.7833 149.329 38.216 149.329 38.744C149.329 39.1547 149.446 39.4993 149.681 39.778C149.93 40.042 150.238 40.24 150.605 40.372C150.986 40.504 151.375 40.57 151.771 40.57Z" fill="#207AD4"/>
<g clip-path="url(#clip0_251_1981)">
<path fill-rule="evenodd" clip-rule="evenodd" d="M78.3178 41.9149C66.0936 35.314 47.9459 35.4147 30.3866 43.5181C29.8082 43.785 29.2353 44.0585 28.6681 44.3379L22.4294 56.3888C26.7377 52.1156 32.0938 48.3279 38.2124 45.4712C49.3376 40.277 60.5588 39.2932 69.0068 41.9813C60.1848 41.0948 50.0825 42.7847 40.1917 47.3491C31.3419 51.4334 23.9596 57.22 18.6275 63.733L12.6606 75.2585V76.0003C20.3172 65.8951 31.4167 56.8621 44.9283 50.6263C56.2325 45.4095 67.7314 42.8403 78.3178 42.6973C78.7731 42.6913 79.2268 42.6895 79.6788 42.6923C79.2339 42.4236 78.78 42.1645 78.3178 41.9148V41.9149Z" fill="#2793FF"/>
<path fill-rule="evenodd" clip-rule="evenodd" d="M49.3815 4.32625L30.2415 41.2982C34.7161 39.2596 39.2262 37.7396 43.664 36.7169L51.6213 21.3465L58.7592 35.1345C63.0063 35.2481 67.0435 35.8628 70.7528 36.9552L53.861 4.32625L51.6211 -0.000244141L49.3813 4.32625H49.3815Z" fill="#2793FF"/>
</g>
<defs>
<clipPath id="clip0_251_1981">
<rect width="79" height="76" fill="white" transform="translate(0.660645 -0.000244141)"/>
</clipPath>
</defs>
</svg>
