<svg width="26" height="26" viewBox="0 0 26 26" fill="none" xmlns="http://www.w3.org/2000/svg">
<rect width="26" height="26" rx="13" fill="url(#paint0_linear_4122_14247)"/>
<path d="M12.6654 15.3834V9.6167L11.112 11.17L10.64 10.6914L12.9987 8.33203L15.358 10.6914L14.886 11.1707L13.332 9.6167V15.3834H12.6654ZM9.40936 17.6654C9.10225 17.6654 8.84603 17.5627 8.6407 17.3574C8.43536 17.152 8.33248 16.8956 8.33203 16.588V14.9727H8.9987V16.588C8.9987 16.6907 9.04136 16.7849 9.1267 16.8707C9.21203 16.9565 9.30603 16.9991 9.4087 16.9987H16.5887C16.6909 16.9987 16.7849 16.956 16.8707 16.8707C16.9565 16.7854 16.9991 16.6911 16.9987 16.588V14.9727H17.6654V16.588C17.6654 16.8951 17.5627 17.1514 17.3574 17.3567C17.152 17.562 16.8956 17.6649 16.588 17.6654H9.40936Z" fill="#FFFEFF"/>
<defs>
<linearGradient id="paint0_linear_4122_14247" x1="13" y1="0" x2="13" y2="26" gradientUnits="userSpaceOnUse">
<stop stop-color="#2793FF"/>
<stop offset="1" stop-color="#77BBFF"/>
</linearGradient>
</defs>
</svg>
