<svg width="16" height="17" viewBox="0 0 16 17" fill="none" xmlns="http://www.w3.org/2000/svg">
<path d="M2.85645 2.33301H13.1431V14.6663H2.85645V2.33301Z" stroke="#43413E" stroke-width="0.5" stroke-linecap="round" stroke-linejoin="round"/>
<path d="M5.42811 8.50033H2.85645L2.85678 11.0697H5.42811M5.42811 8.50033V11.0697M5.42811 8.50033H7.99978M5.42811 8.50033V5.93099M5.42811 8.50033H2.85678L2.85645 5.93099H5.42811M5.42811 11.0697H7.99978M7.99978 8.50033V11.0697M7.99978 8.50033H10.5714M7.99978 8.50033V5.93099M7.99978 11.0697H10.5714M10.5714 8.50033V11.0697M10.5714 8.50033H13.1428M10.5714 8.50033V5.93099M10.5714 11.0697H13.1428V8.50033M13.1428 8.50033V5.93099M5.42811 5.93099H7.99978M5.42811 5.93099V3.36133M5.42811 5.93099H2.85678L2.85645 3.36133H5.42811M7.99978 5.93099H10.5714M7.99978 5.93099V3.36133M10.5714 5.93099H13.1428M10.5714 5.93099V3.36133M13.1428 5.93099V3.36133H10.5714M5.42811 3.36133H7.99978M7.99978 3.36133H10.5714M3.88545 12.0977H5.94245V14.667H3.88545V12.0977ZM10.0571 12.0977H12.1141V14.667H10.0571V12.0977ZM6.97111 12.0977H9.02845V14.667H6.97111V12.0977Z" stroke="#43413E" stroke-width="0.5" stroke-linecap="round" stroke-linejoin="round"/>
</svg>
