<svg width="16" height="16" viewBox="0 0 16 16" fill="none" xmlns="http://www.w3.org/2000/svg">
<path d="M8 9.19566L8.236 9.43166L8 9.66699L7.764 9.43166L8 9.19566ZM7.66667 3.19566C7.66667 3.10725 7.70179 3.02247 7.7643 2.95996C7.82681 2.89745 7.9116 2.86233 8 2.86233C8.08841 2.86233 8.17319 2.89745 8.23571 2.95996C8.29822 3.02247 8.33334 3.10725 8.33334 3.19566H7.66667ZM11.5693 6.09833L8.236 9.43166L7.764 8.95966L11.0973 5.62633L11.5693 6.09833ZM7.764 9.43166L4.43067 6.09833L4.90267 5.62633L8.236 8.95966L7.764 9.43166ZM7.66667 9.19566V3.19566H8.33334V9.19566H7.66667Z" fill="#696765"/>
<path d="M3.3335 10.667V11.3337C3.3335 11.6873 3.47397 12.0264 3.72402 12.2765C3.97407 12.5265 4.31321 12.667 4.66683 12.667H11.3335C11.6871 12.667 12.0263 12.5265 12.2763 12.2765C12.5264 12.0264 12.6668 11.6873 12.6668 11.3337V10.667" stroke="#696765"/>
</svg>
