<svg width="16" height="16" viewBox="0 0 16 16" fill="none" xmlns="http://www.w3.org/2000/svg">
<path d="M10.2701 2.00072C10.761 1.50847 11.4274 1.23141 12.1226 1.23047C12.8178 1.22953 13.4848 1.5048 13.9771 1.99572C14.4693 2.48663 14.7464 3.15298 14.7473 3.84818C14.7483 4.54338 14.473 5.21047 13.9821 5.70272L6.51309 13.1937C6.35572 13.3517 6.16509 13.4727 5.95509 13.5477L1.98609 14.9637C1.85225 15.0115 1.70758 15.0203 1.56894 14.989C1.4303 14.9578 1.30339 14.8878 1.203 14.7872C1.10262 14.6866 1.03287 14.5595 1.00191 14.4208C0.97094 14.2821 0.980021 14.1375 1.02809 14.0037L2.45409 10.0407C2.5286 9.83367 2.64775 9.64556 2.80309 9.48972L10.2701 2.00072ZM13.2721 2.70472C13.1215 2.55397 12.9426 2.43442 12.7457 2.35292C12.5488 2.27141 12.3378 2.22955 12.1247 2.22974C11.9116 2.22993 11.7006 2.27215 11.5039 2.354C11.3071 2.43585 11.1284 2.55571 10.9781 2.70672L10.1961 3.49072L12.4891 5.78372L13.2741 4.99672C13.4245 4.84614 13.5438 4.66738 13.6252 4.47067C13.7065 4.27397 13.7483 4.06316 13.7481 3.8503C13.7479 3.63744 13.7057 3.42671 13.6241 3.23014C13.5424 3.03358 13.4228 2.85503 13.2721 2.70472ZM11.7831 6.49172L9.49009 4.19872L3.51109 10.1957C3.45939 10.2478 3.41979 10.3106 3.39509 10.3797L2.14809 13.8437L5.61809 12.6057C5.68845 12.5808 5.75234 12.5405 5.80509 12.4877L11.7831 6.49172ZM8.85709 1.99972H1.50009C1.36748 1.99972 1.24031 2.05239 1.14654 2.14616C1.05277 2.23993 1.00009 2.36711 1.00009 2.49972C1.00009 2.63232 1.05277 2.7595 1.14654 2.85327C1.24031 2.94704 1.36748 2.99972 1.50009 2.99972H7.86009L8.85709 1.99972ZM6.86309 3.99972H1.50009C1.36748 3.99972 1.24031 4.05239 1.14654 4.14616C1.05277 4.23993 1.00009 4.36711 1.00009 4.49972C1.00009 4.63232 1.05277 4.7595 1.14654 4.85327C1.24031 4.94704 1.36748 4.99972 1.50009 4.99972H5.86609L6.86309 3.99972ZM4.87009 5.99972H1.50009C1.36748 5.99972 1.24031 6.05239 1.14654 6.14616C1.05277 6.23993 1.00009 6.36711 1.00009 6.49972C1.00009 6.63232 1.05277 6.7595 1.14654 6.85327C1.24031 6.94704 1.36748 6.99972 1.50009 6.99972H3.87309L4.87009 5.99972Z" fill="#696765"/>
</svg>
