<svg width="16" height="16" viewBox="0 0 16 16" fill="none" xmlns="http://www.w3.org/2000/svg">
<path d="M10.27 2.00072C10.7609 1.50847 11.4272 1.23141 12.1224 1.23047C12.8176 1.22953 13.4847 1.5048 13.977 1.99572C14.4692 2.48663 14.7463 3.15298 14.7472 3.84818C14.7482 4.54338 14.4729 5.21047 13.982 5.70272L6.51297 13.1937C6.3556 13.3517 6.16497 13.4727 5.95497 13.5477L1.98597 14.9637C1.85212 15.0115 1.70746 15.0203 1.56882 14.989C1.43018 14.9578 1.30327 14.8878 1.20288 14.7872C1.10249 14.6866 1.03275 14.5595 1.00179 14.4208C0.970818 14.2821 0.979899 14.1375 1.02797 14.0037L2.45397 10.0407C2.52848 9.83367 2.64763 9.64556 2.80297 9.48972L10.27 2.00072ZM13.272 2.70472C13.1214 2.55397 12.9425 2.43442 12.7456 2.35292C12.5487 2.27141 12.3376 2.22955 12.1246 2.22974C11.9115 2.22993 11.7005 2.27215 11.5037 2.354C11.307 2.43585 11.1283 2.55571 10.978 2.70672L10.196 3.49072L12.489 5.78372L13.274 4.99672C13.4244 4.84614 13.5437 4.66738 13.625 4.47067C13.7064 4.27397 13.7481 4.06316 13.7479 3.8503C13.7478 3.63744 13.7056 3.42671 13.624 3.23014C13.5423 3.03358 13.4227 2.85503 13.272 2.70472ZM11.783 6.49172L9.48997 4.19872L3.51097 10.1957C3.45927 10.2478 3.41966 10.3106 3.39497 10.3797L2.14797 13.8437L5.61797 12.6057C5.68833 12.5808 5.75222 12.5405 5.80497 12.4877L11.783 6.49172ZM8.85697 1.99972H1.49997C1.36736 1.99972 1.24018 2.05239 1.14642 2.14616C1.05265 2.23993 0.999969 2.36711 0.999969 2.49972C0.999969 2.63232 1.05265 2.7595 1.14642 2.85327C1.24018 2.94704 1.36736 2.99972 1.49997 2.99972H7.85997L8.85697 1.99972ZM6.86297 3.99972H1.49997C1.36736 3.99972 1.24018 4.05239 1.14642 4.14616C1.05265 4.23993 0.999969 4.36711 0.999969 4.49972C0.999969 4.63232 1.05265 4.7595 1.14642 4.85327C1.24018 4.94704 1.36736 4.99972 1.49997 4.99972H5.86597L6.86297 3.99972ZM4.86997 5.99972H1.49997C1.36736 5.99972 1.24018 6.05239 1.14642 6.14616C1.05265 6.23993 0.999969 6.36711 0.999969 6.49972C0.999969 6.63232 1.05265 6.7595 1.14642 6.85327C1.24018 6.94704 1.36736 6.99972 1.49997 6.99972H3.87297L4.86997 5.99972Z" fill="#207AD4"/>
</svg>
