<svg width="71" height="71" viewBox="0 0 71 71" fill="none" xmlns="http://www.w3.org/2000/svg">
<path d="M19.7215 67.3544H51.2785C57.4301 67.3544 60.4907 64.2342 60.4907 58.0534V31.0721C60.4907 27.2381 60.0749 25.5747 57.6977 23.1378L41.2941 6.46805C39.0373 4.14914 37.1939 3.64453 33.8366 3.64453H19.7215C13.6003 3.64453 10.5093 6.79389 10.5093 12.976V58.0534C10.5093 64.2633 13.6003 67.3544 19.7215 67.3544ZM19.9586 62.5707C16.898 62.5707 15.2929 60.9352 15.2929 57.9646V13.0647C15.2929 10.1233 16.898 8.42816 19.989 8.42816H33.1824V25.6938C33.1824 29.4378 35.0842 31.28 38.7685 31.28H55.7071V57.9646C55.7071 60.9352 54.1312 62.5707 51.0414 62.5707H19.9586ZM39.3036 26.7918C38.1448 26.7918 37.668 26.3176 37.668 25.1284V9.34989L54.7841 26.7931L39.3036 26.7918Z" fill="#43413E"/>
</svg>
