<svg width="16" height="16" viewBox="0 0 16 16" fill="none" xmlns="http://www.w3.org/2000/svg">
<path d="M3.3335 2H12.0002C12.5306 2 13.0393 2.21071 13.4144 2.58579C13.7894 2.96086 14.0002 3.46957 14.0002 4V12.6667C14.0002 13.1971 13.7894 13.7058 13.4144 14.0809C13.0393 14.456 12.5306 14.6667 12.0002 14.6667H3.3335C2.80306 14.6667 2.29436 14.456 1.91928 14.0809C1.54421 13.7058 1.3335 13.1971 1.3335 12.6667V4C1.3335 3.46957 1.54421 2.96086 1.91928 2.58579C2.29436 2.21071 2.80306 2 3.3335 2ZM3.3335 2.66667C2.97987 2.66667 2.64074 2.80714 2.39069 3.05719C2.14064 3.30724 2.00016 3.64638 2.00016 4V6H5.3335V2.66667H3.3335ZM2.00016 12.6667C2.00016 13.0203 2.14064 13.3594 2.39069 13.6095C2.64074 13.8595 2.97987 14 3.3335 14H5.3335V10.6667H2.00016V12.6667ZM5.3335 6.66667H2.00016V10H5.3335V6.66667ZM12.0002 14C12.3538 14 12.6929 13.8595 12.943 13.6095C13.193 13.3594 13.3335 13.0203 13.3335 12.6667V10.6667H10.0002V14H12.0002ZM13.3335 6.66667H10.0002V10H13.3335V6.66667ZM13.3335 4C13.3335 3.64638 13.193 3.30724 12.943 3.05719C12.6929 2.80714 12.3538 2.66667 12.0002 2.66667H10.0002V6H13.3335V4ZM6.00016 2.66667V6H9.3335V2.66667H6.00016ZM6.00016 14H9.3335V10.6667H6.00016V14ZM9.3335 6.66667H6.00016V10H9.3335V6.66667Z" fill="#43413E"/>
</svg>
