<svg width="26" height="26" viewBox="0 0 26 26" fill="none" xmlns="http://www.w3.org/2000/svg">
<rect width="26" height="26" rx="13" fill="#D2D1D1"/>
<path d="M12.6654 15.3795V9.61279L11.112 11.1661L10.64 10.6875L12.9987 8.32812L15.358 10.6875L14.886 11.1668L13.332 9.61279V15.3795H12.6654ZM9.40936 17.6615C9.10225 17.6615 8.84603 17.5588 8.6407 17.3535C8.43536 17.1481 8.33248 16.8917 8.33203 16.5841V14.9688H8.9987V16.5841C8.9987 16.6868 9.04136 16.781 9.1267 16.8668C9.21203 16.9526 9.30603 16.9952 9.4087 16.9948H16.5887C16.6909 16.9948 16.7849 16.9521 16.8707 16.8668C16.9565 16.7815 16.9991 16.6872 16.9987 16.5841V14.9688H17.6654V16.5841C17.6654 16.8912 17.5627 17.1475 17.3574 17.3528C17.152 17.5581 16.8956 17.661 16.588 17.6615H9.40936Z" fill="#8E8D8B"/>
</svg>
