<svg width="26" height="26" viewBox="0 0 26 26" fill="none" xmlns="http://www.w3.org/2000/svg">
<rect width="26" height="26" rx="13" fill="#D2D1D1"/>
<path d="M14.3326 11.6655L12.3326 13.6655M18.5246 7.01951C18.5879 6.99768 18.656 6.99409 18.7212 7.00914C18.7864 7.0242 18.846 7.0573 18.8933 7.10465C18.9406 7.15201 18.9736 7.21171 18.9886 7.27694C19.0035 7.34216 18.9998 7.41028 18.9779 7.47351L15.0286 18.7602C15.005 18.8276 14.9616 18.8865 14.9041 18.929C14.8467 18.9715 14.7777 18.9958 14.7063 18.9986C14.6349 19.0015 14.5642 18.9829 14.5035 18.9451C14.4428 18.9073 14.3949 18.8522 14.3659 18.7868L12.2199 13.9588C12.1838 13.8786 12.1195 13.8143 12.0393 13.7782L7.21126 11.6315C7.14612 11.6024 7.0912 11.5545 7.05359 11.4939C7.01599 11.4333 6.99742 11.3628 7.00029 11.2915C7.00316 11.2202 7.02734 11.1514 7.0697 11.094C7.11206 11.0366 7.17066 10.9933 7.23792 10.9695L18.5246 7.01951Z" stroke="#8E8D8B" stroke-linecap="round" stroke-linejoin="round"/>
</svg>
