<svg width="17" height="16" viewBox="0 0 17 16" fill="none" xmlns="http://www.w3.org/2000/svg">
<path d="M8.16667 11H8.83333V7.33333H8.16667V11ZM8.5 6.38467C8.61644 6.38467 8.714 6.34533 8.79267 6.26667C8.87133 6.188 8.91044 6.09044 8.91 5.974C8.90956 5.85756 8.87022 5.76022 8.792 5.682C8.71378 5.60378 8.61644 5.56444 8.5 5.564C8.38356 5.56356 8.28622 5.60289 8.208 5.682C8.12978 5.76111 8.09044 5.85867 8.09 5.97467C8.08956 6.09067 8.12889 6.188 8.208 6.26667C8.28711 6.34533 8.38444 6.38467 8.5 6.38467ZM8.502 14C7.67222 14 6.89222 13.8427 6.162 13.528C5.43178 13.2129 4.79644 12.7853 4.256 12.2453C3.71556 11.7053 3.28778 11.0707 2.97267 10.3413C2.65756 9.612 2.5 8.83222 2.5 8.002C2.5 7.17178 2.65756 6.39178 2.97267 5.662C3.28733 4.93178 3.71422 4.29644 4.25333 3.756C4.79244 3.21556 5.42733 2.78778 6.158 2.47267C6.88867 2.15756 7.66867 2 8.498 2C9.32733 2 10.1073 2.15756 10.838 2.47267C11.5682 2.78733 12.2036 3.21444 12.744 3.754C13.2844 4.29356 13.7122 4.92844 14.0273 5.65867C14.3424 6.38889 14.5 7.16867 14.5 7.998C14.5 8.82733 14.3427 9.60733 14.028 10.338C13.7133 11.0687 13.2858 11.704 12.7453 12.244C12.2049 12.784 11.5702 13.2118 10.8413 13.5273C10.1124 13.8429 9.33267 14.0004 8.502 14ZM8.5 13.3333C9.98889 13.3333 11.25 12.8167 12.2833 11.7833C13.3167 10.75 13.8333 9.48889 13.8333 8C13.8333 6.51111 13.3167 5.25 12.2833 4.21667C11.25 3.18333 9.98889 2.66667 8.5 2.66667C7.01111 2.66667 5.75 3.18333 4.71667 4.21667C3.68333 5.25 3.16667 6.51111 3.16667 8C3.16667 9.48889 3.68333 10.75 4.71667 11.7833C5.75 12.8167 7.01111 13.3333 8.5 13.3333Z" fill="#696765"/>
</svg>
