<svg width="16" height="16" viewBox="0 0 16 16" fill="none" xmlns="http://www.w3.org/2000/svg">
<path d="M5.43633 6.07603C5.34166 6.07603 5.26255 6.04403 5.19899 5.98003C5.13544 5.91603 5.10344 5.8367 5.10299 5.74203C5.10255 5.64736 5.13455 5.56825 5.19899 5.5047C5.26344 5.44114 5.34255 5.40936 5.43633 5.40936H13.0003C13.095 5.40936 13.1741 5.44114 13.2377 5.5047C13.3017 5.5687 13.3337 5.64803 13.3337 5.7427C13.3337 5.83736 13.3017 5.91648 13.2377 5.98003C13.1737 6.04359 13.0945 6.07559 13.0003 6.07603H5.43633ZM5.43633 8.33203C5.34166 8.33203 5.26255 8.30003 5.19899 8.23603C5.13544 8.17203 5.10344 8.0927 5.10299 7.99803C5.10255 7.90336 5.13455 7.82425 5.19899 7.7607C5.26344 7.69714 5.34255 7.66536 5.43633 7.66536H13.0003C13.095 7.66536 13.1741 7.69736 13.2377 7.76136C13.3012 7.82536 13.3332 7.9047 13.3337 7.99936C13.3341 8.09403 13.3021 8.17314 13.2377 8.2367C13.1732 8.30025 13.0941 8.33203 13.0003 8.33203H5.43633ZM5.43633 10.5887C5.34166 10.5887 5.26255 10.5567 5.19899 10.4927C5.13499 10.4287 5.10299 10.3494 5.10299 10.2547C5.10299 10.16 5.13499 10.0809 5.19899 10.0174C5.26299 9.95381 5.3421 9.92181 5.43633 9.92136H13.0003C13.095 9.92136 13.1741 9.95359 13.2377 10.018C13.3012 10.0825 13.3332 10.1616 13.3337 10.2554C13.3341 10.3491 13.3021 10.4283 13.2377 10.4927C13.1732 10.5571 13.0941 10.5891 13.0003 10.5887H5.43633ZM3.07766 6.15203C2.96121 6.15203 2.86366 6.11136 2.78499 6.03003C2.70633 5.94959 2.66699 5.84936 2.66699 5.72936C2.66699 5.61692 2.70633 5.5227 2.78499 5.4467C2.86366 5.37025 2.96121 5.33203 3.07766 5.33203C3.19366 5.33203 3.29099 5.37025 3.36966 5.4467C3.44833 5.52225 3.48766 5.61648 3.48766 5.72936C3.48766 5.84936 3.44833 5.94981 3.36966 6.0307C3.29099 6.11203 3.19344 6.1527 3.07699 6.1527M3.07699 8.39603C2.96099 8.39603 2.86366 8.35803 2.78499 8.28203C2.70633 8.20603 2.66699 8.11159 2.66699 7.9987C2.66699 7.86981 2.70633 7.76714 2.78499 7.6907C2.86366 7.61425 2.96121 7.57581 3.07766 7.57536C3.1941 7.57492 3.29144 7.61314 3.36966 7.69003C3.44788 7.76692 3.48721 7.86981 3.48766 7.9987C3.48766 8.11114 3.44833 8.20559 3.36966 8.28203C3.29099 8.35848 3.19344 8.39648 3.07699 8.39603ZM3.07699 10.6654C2.96099 10.6654 2.86366 10.6249 2.78499 10.544C2.70633 10.4627 2.66699 10.3623 2.66699 10.2427C2.66699 10.1298 2.70633 10.0354 2.78499 9.95936C2.86366 9.88292 2.96121 9.8447 3.07766 9.8447C3.19366 9.8447 3.29099 9.88292 3.36966 9.95936C3.44833 10.0358 3.48766 10.1303 3.48766 10.2427C3.48766 10.3623 3.44833 10.4627 3.36966 10.544C3.29099 10.6249 3.19344 10.6654 3.07699 10.6654Z" fill="#43413E"/>
</svg>
