<svg width="28" height="24" viewBox="0 0 28 24" fill="none" xmlns="http://www.w3.org/2000/svg">
<path d="M10.25 11.25C9.8375 11.25 9.5 11.5875 9.5 12C9.5 12.4125 9.8375 12.75 10.25 12.75C10.6625 12.75 11 12.4125 11 12C11 11.5875 10.6625 11.25 10.25 11.25ZM17.75 11.25C17.3375 11.25 17 11.5875 17 12C17 12.4125 17.3375 12.75 17.75 12.75C18.1625 12.75 18.5 12.4125 18.5 12C18.5 11.5875 18.1625 11.25 17.75 11.25ZM14 11.25C13.5875 11.25 13.25 11.5875 13.25 12C13.25 12.4125 13.5875 12.75 14 12.75C14.4125 12.75 14.75 12.4125 14.75 12C14.75 11.5875 14.4125 11.25 14 11.25Z" fill="#696765"/>
</svg>
