<svg width="16" height="16" viewBox="0 0 16 16" fill="none" xmlns="http://www.w3.org/2000/svg">
<path d="M3.33268 12.6665H4.06468L11.1967 5.53451L10.4647 4.80251L3.33268 11.9345V12.6665ZM2.66602 13.3332V11.6532L11.4527 2.85851C11.5216 2.79763 11.5971 2.75051 11.6793 2.71718C11.7616 2.68385 11.8476 2.66696 11.9373 2.66651C12.0271 2.66607 12.1138 2.68029 12.1973 2.70918C12.2818 2.73718 12.3596 2.78785 12.4307 2.86118L13.142 3.57718C13.2154 3.64785 13.2656 3.72563 13.2927 3.81051C13.3193 3.89496 13.3327 3.9794 13.3327 4.06385C13.3327 4.15451 13.3176 4.24118 13.2873 4.32385C13.2567 4.40607 13.2082 4.4814 13.142 4.54985L4.34535 13.3332H2.66602ZM10.8247 5.17451L10.4647 4.80251L11.1967 5.53451L10.8247 5.17451Z" fill="#696765"/>
</svg>
