<svg width="16" height="16" viewBox="0 0 16 16" fill="none" xmlns="http://www.w3.org/2000/svg">
<path d="M11.5898 13.9998C10.8467 13.9998 10.2165 13.7412 9.69917 13.2238C9.18184 12.7056 8.92317 12.0754 8.92317 11.3332C8.92317 10.5909 9.18184 9.96094 9.69917 9.44316C10.2165 8.92539 10.8465 8.6665 11.5892 8.6665C12.3323 8.6665 12.9625 8.92539 13.4798 9.44316C13.9976 9.9605 14.2565 10.5905 14.2565 11.3332C14.2565 12.0758 13.9976 12.7061 13.4798 13.2238C12.9621 13.7416 12.3321 14.0003 11.5898 13.9998ZM12.6932 12.8012L13.0572 12.4372L11.8458 11.2252V9.4105H11.3332V11.4412L12.6932 12.8012ZM3.74317 13.3332C3.44539 13.3332 3.19139 13.2283 2.98117 13.0185C2.77139 12.8087 2.6665 12.5547 2.6665 12.2565V3.74316C2.6665 3.44539 2.77139 3.19139 2.98117 2.98116C3.19095 2.77139 3.44517 2.6665 3.74384 2.6665H6.8345C6.89673 2.40605 7.03517 2.18716 7.24984 2.00983C7.4645 1.83205 7.7145 1.74316 7.99984 1.74316C8.2905 1.74316 8.5425 1.83205 8.75584 2.00983C8.96917 2.18672 9.10695 2.40561 9.16917 2.6665H12.2558C12.5545 2.6665 12.8087 2.77139 13.0185 2.98116C13.2283 3.19094 13.3332 3.44516 13.3332 3.74383V7.7565C13.2185 7.69739 13.1101 7.64561 13.0078 7.60116C12.9056 7.55672 12.7918 7.51694 12.6665 7.48183V3.74316C12.6665 3.64094 12.6238 3.54694 12.5385 3.46116C12.4532 3.37539 12.3589 3.33272 12.2558 3.33316H10.6665V4.81983H5.33317V3.33316H3.74384C3.64117 3.33316 3.54695 3.37583 3.46117 3.46116C3.37539 3.5465 3.33273 3.64072 3.33317 3.74383V12.2565C3.33317 12.3761 3.37161 12.4743 3.4485 12.5512C3.52539 12.6281 3.62384 12.6665 3.74384 12.6665H7.82784C7.86339 12.7909 7.90539 12.9067 7.95384 13.0138C8.00273 13.1205 8.06495 13.2269 8.1405 13.3332H3.74317ZM7.99984 3.4865C8.1545 3.4865 8.28295 3.43561 8.38517 3.33383C8.48739 3.23161 8.5385 3.10316 8.5385 2.9485C8.5385 2.79383 8.48739 2.66539 8.38517 2.56316C8.28295 2.46094 8.1545 2.40983 7.99984 2.40983C7.84517 2.40983 7.71673 2.46094 7.6145 2.56316C7.51228 2.66539 7.46117 2.79383 7.46117 2.9485C7.46117 3.10316 7.51228 3.23161 7.6145 3.33383C7.71673 3.43605 7.84517 3.4865 7.99984 3.4865Z" fill="#DE5376"/>
</svg>
