<svg width="17" height="17" viewBox="0 0 17 17" fill="none" xmlns="http://www.w3.org/2000/svg">
<path d="M7.28571 9.71429H1.21429C0.870242 9.71429 0.582052 9.59771 0.349718 9.36457C0.117385 9.13143 0.000813711 8.84324 4.18719e-06 8.5C-0.000805336 8.15676 0.115766 7.86857 0.349718 7.63543C0.583671 7.40229 0.871861 7.28571 1.21429 7.28571H7.28571V1.21429C7.28571 0.870242 7.40229 0.582052 7.63543 0.349718C7.86857 0.117385 8.15676 0.000813711 8.5 4.18719e-06C8.84324 -0.000805336 9.13183 0.115766 9.36579 0.349718C9.59974 0.583671 9.71591 0.871861 9.71429 1.21429V7.28571H15.7857C16.1298 7.28571 16.4184 7.40229 16.6515 7.63543C16.8846 7.86857 17.0008 8.15676 17 8.5C16.9992 8.84324 16.8826 9.13183 16.6503 9.36579C16.4179 9.59974 16.1298 9.71591 15.7857 9.71429H9.71429V15.7857C9.71429 16.1298 9.59771 16.4184 9.36457 16.6515C9.13143 16.8846 8.84324 17.0008 8.5 17C8.15676 16.9992 7.86857 16.8826 7.63543 16.6503C7.40229 16.4179 7.28571 16.1298 7.28571 15.7857V9.71429Z" fill="#9747FF"/>
</svg>
