<svg width="16" height="16" viewBox="0 0 16 16" fill="none" xmlns="http://www.w3.org/2000/svg">
<path d="M9.00008 5.33333H8.00008V8.66667L10.8534 10.36L11.3334 9.55333L9.00008 8.16667V5.33333ZM8.66675 2C7.07545 2 5.54933 2.63214 4.42411 3.75736C3.29889 4.88258 2.66675 6.4087 2.66675 8H0.666748L3.30675 10.6867L6.00008 8H4.00008C4.00008 6.76232 4.49175 5.57534 5.36692 4.70017C6.24209 3.825 7.42907 3.33333 8.66675 3.33333C9.90443 3.33333 11.0914 3.825 11.9666 4.70017C12.8417 5.57534 13.3334 6.76232 13.3334 8C13.3334 9.23768 12.8417 10.4247 11.9666 11.2998C11.0914 12.175 9.90443 12.6667 8.66675 12.6667C7.38008 12.6667 6.21342 12.14 5.37341 11.2933L4.42675 12.24C4.98115 12.8003 5.64164 13.2445 6.36963 13.5467C7.09763 13.8489 7.87853 14.003 8.66675 14C10.258 14 11.7842 13.3679 12.9094 12.2426C14.0346 11.1174 14.6667 9.5913 14.6667 8C14.6667 6.4087 14.0346 4.88258 12.9094 3.75736C11.7842 2.63214 10.258 2 8.66675 2Z" fill="#43413E"/>
</svg>
