<svg width="16" height="16" viewBox="0 0 16 16" fill="none" xmlns="http://www.w3.org/2000/svg">
<g clip-path="url(#clip0_554_7478)">
<path d="M8.66689 10.9997C8.66689 11.1765 8.59666 11.3461 8.47163 11.4711C8.34661 11.5961 8.17704 11.6663 8.00023 11.6663C7.82342 11.6663 7.65385 11.5961 7.52882 11.4711C7.4038 11.3461 7.33356 11.1765 7.33356 10.9997C7.33356 10.8229 7.4038 10.6533 7.52882 10.5283C7.65385 10.4032 7.82342 10.333 8.00023 10.333C8.17704 10.333 8.34661 10.4032 8.47163 10.5283C8.59666 10.6533 8.66689 10.8229 8.66689 10.9997ZM6.98889 5.88967C7.06356 5.74101 7.16756 5.60701 7.31423 5.50967C7.45756 5.41301 7.67089 5.33301 8.00023 5.33301C8.25623 5.33301 8.5109 5.41167 8.68956 5.54567C8.77532 5.606 8.84477 5.68667 8.89166 5.78046C8.93855 5.87424 8.96143 5.9782 8.95823 6.08301C8.95823 6.40301 8.8129 6.62301 8.54489 6.87367C8.45639 6.95506 8.36546 7.03376 8.27223 7.10967L8.07623 7.27567C7.91223 7.41767 7.72689 7.59167 7.58423 7.80567L7.50023 7.93234V8.99967C7.50023 9.13228 7.55291 9.25946 7.64667 9.35323C7.74044 9.447 7.86762 9.49967 8.00023 9.49967C8.13284 9.49967 8.26001 9.447 8.35378 9.35323C8.44755 9.25946 8.50023 9.13228 8.50023 8.99967V8.25301C8.56023 8.18634 8.63556 8.11434 8.73156 8.03101C8.77356 7.99434 8.82489 7.95167 8.87956 7.90634C8.99023 7.81301 9.11823 7.70634 9.22623 7.60501C9.58356 7.27167 9.95823 6.80501 9.95823 6.08301C9.96129 5.82296 9.90221 5.56594 9.78591 5.33334C9.6696 5.10073 9.49943 4.89925 9.28956 4.74567C8.91356 4.46301 8.43889 4.33301 8.00023 4.33301C7.49623 4.33301 7.08489 4.46034 6.75956 4.67767C6.47473 4.87009 6.24551 5.13403 6.09489 5.44301C6.04113 5.56087 6.03522 5.695 6.07839 5.81713C6.12156 5.93927 6.21045 6.03989 6.32633 6.09779C6.44222 6.15569 6.57605 6.16635 6.69964 6.12753C6.82323 6.08871 6.92693 6.00344 6.98889 5.88967Z" fill="#FD873B"/>
<path d="M6.57599 0.800479C6.98892 0.497407 7.48778 0.333984 7.99999 0.333984C8.5122 0.333984 9.01106 0.497407 9.42399 0.800479L10.3407 1.47381C10.5233 1.60715 10.736 1.69581 10.96 1.72981L12.084 1.90248C12.5902 1.9801 13.0585 2.2172 13.4207 2.57929C13.7829 2.94139 14.0202 3.40959 14.098 3.91581L14.2707 5.04048C14.3047 5.26448 14.3927 5.47715 14.5267 5.65981L15.2 6.57648C15.5031 6.98941 15.6665 7.48826 15.6665 8.00048C15.6665 8.51269 15.5031 9.01155 15.2 9.42448L14.5267 10.3411C14.3924 10.5238 14.3046 10.7364 14.2707 10.9605L14.098 12.0845C14.0204 12.5907 13.7833 13.059 13.4212 13.4212C13.0591 13.7834 12.5909 14.0207 12.0847 14.0985L10.96 14.2711C10.7359 14.3051 10.5233 14.3929 10.3407 14.5271L9.42399 15.2005C9.01106 15.5036 8.5122 15.667 7.99999 15.667C7.48778 15.667 6.98892 15.5036 6.57599 15.2005L5.65932 14.5271C5.47665 14.3929 5.26412 14.3051 5.03999 14.2711L3.91599 14.0985C3.40974 14.0209 2.94146 13.7838 2.57925 13.4217C2.21703 13.0596 1.97978 12.5914 1.90199 12.0851L1.72932 10.9605C1.69539 10.7364 1.60754 10.5238 1.47332 10.3411L0.799991 9.42448C0.496918 9.01155 0.333496 8.51269 0.333496 8.00048C0.333496 7.48826 0.496918 6.98941 0.799991 6.57648L1.47332 5.65981C1.60732 5.47715 1.69532 5.26448 1.72932 5.04048L1.90199 3.91648C1.97961 3.41023 2.21671 2.94195 2.5788 2.57974C2.9409 2.21752 3.4091 1.98027 3.91532 1.90248L5.03999 1.72981C5.26399 1.69581 5.47666 1.60781 5.65932 1.47381L6.57599 0.800479ZM8.83199 1.60648C8.5907 1.42948 8.29924 1.33405 7.99999 1.33405C7.70074 1.33405 7.40928 1.42948 7.16799 1.60648L6.25066 2.27981C5.93817 2.50947 5.57469 2.65999 5.19132 2.71848L4.06732 2.89048C3.77132 2.93584 3.49751 3.07449 3.28576 3.28625C3.07401 3.498 2.93536 3.7718 2.88999 4.06781L2.71799 5.19181C2.65961 5.57541 2.50908 5.93913 2.27932 6.25181L1.60599 7.16848C1.42899 7.40977 1.33356 7.70123 1.33356 8.00048C1.33356 8.29973 1.42899 8.59118 1.60599 8.83248L2.27932 9.74981C2.50898 10.0623 2.6595 10.4258 2.71799 10.8091L2.88999 11.9331C2.93549 12.229 3.07419 12.5027 3.28594 12.7143C3.49768 12.9259 3.77141 13.0645 4.06732 13.1098L5.19132 13.2831C5.57486 13.3413 5.93858 13.4916 6.25132 13.7211L7.16799 14.3945C7.40928 14.5715 7.70074 14.6669 7.99999 14.6669C8.29924 14.6669 8.5907 14.5715 8.83199 14.3945L9.74932 13.7211C10.0618 13.4915 10.4253 13.341 10.8087 13.2825L11.9327 13.1105C12.2285 13.065 12.5022 12.9263 12.7138 12.7145C12.9254 12.5028 13.064 12.2291 13.1093 11.9331L13.2827 10.8091C13.3408 10.4256 13.4911 10.0619 13.7207 9.74914L14.394 8.83248C14.571 8.59118 14.6664 8.29973 14.6664 8.00048C14.6664 7.70123 14.571 7.40977 14.394 7.16848L13.7207 6.25115C13.491 5.93866 13.3405 5.57518 13.282 5.19181L13.11 4.06781C13.0646 3.7718 12.926 3.498 12.7142 3.28625C12.5025 3.07449 12.2287 2.93584 11.9327 2.89048L10.8087 2.71848C10.4251 2.66009 10.0613 2.50957 9.74866 2.27981L8.83199 1.60648Z" fill="#FD873B"/>
</g>
<defs>
<clipPath id="clip0_554_7478">
<rect width="16" height="16" fill="white"/>
</clipPath>
</defs>
</svg>
