<svg width="16" height="16" viewBox="0 0 16 16" fill="none" xmlns="http://www.w3.org/2000/svg">
<path d="M6.0153 14.153L4.90196 12.277L2.78463 11.8204L2.99263 9.6357L1.56396 7.9997L2.9933 6.3637L2.78463 4.1797L4.90263 3.72304L6.0153 1.84637L7.99996 2.68437L9.98463 1.8457L11.098 3.72304L13.2153 4.17904L13.0073 6.3637L14.4366 7.9997L13.0086 9.6357L13.216 11.8204L11.098 12.2764L9.9853 14.1537L7.99996 13.315L6.0153 14.153ZM6.29996 13.2997L7.99996 12.5924L9.70796 13.2997L10.6666 11.6997L12.5 11.2924L12.3333 9.3997L13.5666 7.9997L12.3333 6.59237L12.5 4.6997L10.6666 4.2997L9.69996 2.6997L7.99996 3.4077L6.29263 2.6997L5.3333 4.2997L3.49996 4.6997L3.66663 6.59237L2.4333 7.9997L3.66663 9.3997L3.49996 11.2997L5.3333 11.6997L6.29996 13.2997ZM7.29996 9.90504L10.6053 6.5997L10.1333 6.1197L7.29996 8.95304L5.86663 7.5277L5.39463 7.9997L7.29996 9.90504Z" fill="#34C759"/>
</svg>
