<svg width="75" height="17" viewBox="0 0 75 17" fill="none" xmlns="http://www.w3.org/2000/svg">
<path d="M0.540767 16C0.423433 16 0.320767 15.956 0.232767 15.868C0.144767 15.78 0.100767 15.6773 0.100767 15.56C0.100767 15.4867 0.1081 15.406 0.122767 15.318L5.57877 1.084C5.63743 0.937333 5.7181 0.82 5.82077 0.732C5.92343 0.643999 6.07743 0.599999 6.28277 0.599999H7.77877C7.96943 0.599999 8.1161 0.643999 8.21877 0.732C8.3361 0.82 8.4241 0.937333 8.48277 1.084L13.9168 15.318C13.9461 15.406 13.9608 15.4867 13.9608 15.56C13.9608 15.6773 13.9168 15.78 13.8288 15.868C13.7408 15.956 13.6381 16 13.5208 16H12.3988C12.2228 16 12.0908 15.956 12.0028 15.868C11.9294 15.78 11.8781 15.6993 11.8488 15.626L10.6388 12.502H3.42277L2.21277 15.626C2.1981 15.6993 2.14677 15.78 2.05877 15.868C1.97077 15.956 1.83877 16 1.66277 16H0.540767ZM4.06077 10.61H10.0008L7.03077 2.8L4.06077 10.61ZM20.5181 16.22C19.4768 16.22 18.5748 16.022 17.8121 15.626C17.0641 15.2153 16.4848 14.636 16.0741 13.888C15.6635 13.1253 15.4435 12.216 15.4141 11.16C15.3995 10.94 15.3921 10.6467 15.3921 10.28C15.3921 9.91333 15.3995 9.62 15.4141 9.4C15.4435 8.344 15.6635 7.442 16.0741 6.694C16.4848 5.93133 17.0641 5.352 17.8121 4.956C18.5748 4.54533 19.4768 4.34 20.5181 4.34C21.3688 4.34 22.0948 4.45733 22.6961 4.692C23.3121 4.92667 23.8181 5.22733 24.2141 5.594C24.6101 5.96067 24.9035 6.35667 25.0941 6.782C25.2995 7.20733 25.4095 7.61067 25.4241 7.992C25.4388 8.13867 25.3948 8.256 25.2921 8.344C25.1895 8.432 25.0648 8.476 24.9181 8.476H23.8621C23.7155 8.476 23.6055 8.44667 23.5321 8.388C23.4588 8.31467 23.3855 8.19733 23.3121 8.036C23.0481 7.31733 22.6888 6.81133 22.2341 6.518C21.7795 6.22467 21.2148 6.078 20.5401 6.078C19.6601 6.078 18.9415 6.34933 18.3841 6.892C17.8415 7.43467 17.5481 8.30733 17.5041 9.51C17.4895 10.038 17.4895 10.5513 17.5041 11.05C17.5481 12.2673 17.8415 13.1473 18.3841 13.69C18.9415 14.218 19.6601 14.482 20.5401 14.482C21.2148 14.482 21.7795 14.3353 22.2341 14.042C22.6888 13.7487 23.0481 13.2427 23.3121 12.524C23.3855 12.3627 23.4588 12.2527 23.5321 12.194C23.6055 12.1207 23.7155 12.084 23.8621 12.084H24.9181C25.0648 12.084 25.1895 12.128 25.2921 12.216C25.3948 12.304 25.4388 12.4213 25.4241 12.568C25.4095 12.876 25.3435 13.1913 25.2261 13.514C25.1088 13.8367 24.9181 14.1667 24.6541 14.504C24.4048 14.8267 24.0895 15.12 23.7081 15.384C23.3268 15.6333 22.8648 15.8387 22.3221 16C21.7941 16.1467 21.1928 16.22 20.5181 16.22ZM28.5648 16C28.4181 16 28.2935 15.956 28.1908 15.868C28.1028 15.7653 28.0588 15.6407 28.0588 15.494V0.885999C28.0588 0.739333 28.1028 0.622 28.1908 0.534C28.2935 0.431333 28.4181 0.379999 28.5648 0.379999H29.6648C29.8261 0.379999 29.9508 0.431333 30.0388 0.534C30.1268 0.622 30.1708 0.739333 30.1708 0.885999V6.012C30.5668 5.51333 31.0508 5.11 31.6228 4.802C32.1948 4.494 32.9208 4.34 33.8008 4.34C34.7541 4.34 35.5608 4.55267 36.2208 4.978C36.8955 5.38867 37.4015 5.968 37.7388 6.716C38.0908 7.44933 38.2668 8.30733 38.2668 9.29V15.494C38.2668 15.6407 38.2228 15.7653 38.1348 15.868C38.0468 15.956 37.9221 16 37.7608 16H36.6608C36.5141 16 36.3895 15.956 36.2868 15.868C36.1988 15.7653 36.1548 15.6407 36.1548 15.494V9.4C36.1548 8.37333 35.9055 7.574 35.4068 7.002C34.9081 6.41533 34.1748 6.122 33.2068 6.122C32.2975 6.122 31.5641 6.41533 31.0068 7.002C30.4495 7.574 30.1708 8.37333 30.1708 9.4V15.494C30.1708 15.6407 30.1268 15.7653 30.0388 15.868C29.9508 15.956 29.8261 16 29.6648 16H28.5648ZM45.9971 16.22C44.4864 16.22 43.2837 15.758 42.3891 14.834C41.4944 13.8953 41.0031 12.6193 40.9151 11.006C40.9004 10.8153 40.8931 10.5733 40.8931 10.28C40.8931 9.972 40.9004 9.72267 40.9151 9.532C40.9737 8.49067 41.2157 7.58133 41.6411 6.804C42.0664 6.012 42.6457 5.40333 43.3791 4.978C44.1271 4.55267 44.9997 4.34 45.9971 4.34C47.1117 4.34 48.0431 4.57467 48.7911 5.044C49.5537 5.51333 50.1331 6.18067 50.5291 7.046C50.9251 7.91133 51.1231 8.92333 51.1231 10.082V10.456C51.1231 10.6173 51.0717 10.742 50.9691 10.83C50.8811 10.918 50.7637 10.962 50.6171 10.962H43.0051C43.0051 10.9767 43.0051 11.006 43.0051 11.05C43.0051 11.094 43.0051 11.1307 43.0051 11.16C43.0344 11.7613 43.1664 12.326 43.4011 12.854C43.6357 13.3673 43.9731 13.7853 44.4131 14.108C44.8531 14.4307 45.3811 14.592 45.9971 14.592C46.5251 14.592 46.9651 14.5113 47.3171 14.35C47.6691 14.1887 47.9551 14.0127 48.1751 13.822C48.3951 13.6167 48.5417 13.4627 48.6151 13.36C48.7471 13.1693 48.8497 13.0593 48.9231 13.03C48.9964 12.986 49.1137 12.964 49.2751 12.964H50.3311C50.4777 12.964 50.5951 13.008 50.6831 13.096C50.7857 13.1693 50.8297 13.2793 50.8151 13.426C50.8004 13.646 50.6831 13.9173 50.4631 14.24C50.2431 14.548 49.9277 14.856 49.5171 15.164C49.1064 15.472 48.6077 15.7287 48.0211 15.934C47.4344 16.1247 46.7597 16.22 45.9971 16.22ZM43.0051 9.444H49.0331V9.378C49.0331 8.718 48.9084 8.13133 48.6591 7.618C48.4244 7.10467 48.0797 6.70133 47.6251 6.408C47.1704 6.1 46.6277 5.946 45.9971 5.946C45.3664 5.946 44.8237 6.1 44.3691 6.408C43.9291 6.70133 43.5917 7.10467 43.3571 7.618C43.1224 8.13133 43.0051 8.718 43.0051 9.378V9.444ZM57.3489 16C57.1289 16 56.9529 15.9487 56.8209 15.846C56.7036 15.7433 56.6082 15.6113 56.5349 15.45L52.4649 5.242C52.4356 5.16867 52.4209 5.09533 52.4209 5.022C52.4209 4.89 52.4649 4.78 52.5529 4.692C52.6409 4.604 52.7509 4.56 52.8829 4.56H53.9389C54.1002 4.56 54.2249 4.604 54.3129 4.692C54.4009 4.78 54.4522 4.86067 54.4669 4.934L57.8329 13.602L61.1769 4.934C61.2062 4.86067 61.2576 4.78 61.3309 4.692C61.4189 4.604 61.5436 4.56 61.7049 4.56H62.7829C62.9002 4.56 63.0029 4.604 63.0909 4.692C63.1936 4.78 63.2449 4.89 63.2449 5.022C63.2449 5.09533 63.2302 5.16867 63.2009 5.242L59.1089 15.45C59.0502 15.6113 58.9549 15.7433 58.8229 15.846C58.7056 15.9487 58.5296 16 58.2949 16H57.3489ZM68.3088 16.22C67.5755 16.22 66.9082 16.0733 66.3068 15.78C65.7055 15.4867 65.2215 15.0907 64.8548 14.592C64.4882 14.0933 64.3048 13.5287 64.3048 12.898C64.3048 11.886 64.7155 11.0793 65.5368 10.478C66.3582 9.87667 67.4288 9.48067 68.7488 9.29L72.0268 8.828V8.19C72.0268 7.486 71.8215 6.936 71.4108 6.54C71.0148 6.144 70.3622 5.946 69.4528 5.946C68.7928 5.946 68.2575 6.078 67.8468 6.342C67.4508 6.606 67.1722 6.94333 67.0108 7.354C66.9228 7.574 66.7688 7.684 66.5488 7.684H65.5588C65.3975 7.684 65.2728 7.64 65.1848 7.552C65.1115 7.44933 65.0748 7.332 65.0748 7.2C65.0748 6.98 65.1555 6.70867 65.3168 6.386C65.4928 6.06333 65.7568 5.748 66.1088 5.44C66.4608 5.132 66.9082 4.87533 67.4508 4.67C68.0082 4.45 68.6828 4.34 69.4748 4.34C70.3548 4.34 71.0955 4.45733 71.6968 4.692C72.2982 4.912 72.7675 5.21267 73.1048 5.594C73.4568 5.97533 73.7062 6.408 73.8528 6.892C74.0142 7.376 74.0948 7.86733 74.0948 8.366V15.494C74.0948 15.6407 74.0435 15.7653 73.9408 15.868C73.8528 15.956 73.7355 16 73.5888 16H72.5768C72.4155 16 72.2908 15.956 72.2028 15.868C72.1148 15.7653 72.0708 15.6407 72.0708 15.494V14.548C71.8802 14.812 71.6235 15.076 71.3008 15.34C70.9782 15.5893 70.5748 15.802 70.0908 15.978C69.6068 16.1393 69.0128 16.22 68.3088 16.22ZM68.7708 14.57C69.3722 14.57 69.9222 14.4453 70.4208 14.196C70.9195 13.932 71.3082 13.5287 71.5868 12.986C71.8802 12.4433 72.0268 11.7613 72.0268 10.94V10.324L69.4748 10.698C68.4335 10.8447 67.6488 11.094 67.1208 11.446C66.5928 11.7833 66.3288 12.216 66.3288 12.744C66.3288 13.1547 66.4462 13.4993 66.6808 13.778C66.9302 14.042 67.2382 14.24 67.6048 14.372C67.9862 14.504 68.3748 14.57 68.7708 14.57Z" fill="#207AD4"/>
</svg>
